<svg width="93" height="101" viewBox="0 0 93 101" fill="none" xmlns="http://www.w3.org/2000/svg">
<path d="M26.2841 78.4318L26.2805 79.4318H26.2841V78.4318ZM13.9602 75.1335L13.4269 75.9794L13.9602 75.1335ZM5.95739 65.6989L5.04767 66.1141L5.95739 65.6989ZM3.17045 50.9205L4.17045 50.9234V50.9234L3.17045 50.9205ZM5.98295 36.2443L5.07657 35.8218L5.07511 35.825L5.98295 36.2443ZM13.9602 27.0653L13.442 26.2101L13.4401 26.2112L13.9602 27.0653ZM38.608 27.0909L38.0867 27.9443L38.0897 27.9462L38.608 27.0909ZM46.6108 36.2699L47.5172 35.8474L46.6108 36.2699ZM49.3977 50.9205L48.3977 50.9175V50.9205H49.3977ZM46.5852 65.75L47.4949 66.1652L46.5852 65.75ZM38.5824 75.1847L39.1146 76.0312L39.1158 76.0305L38.5824 75.1847ZM32.3182 63.0398L31.4667 62.5154L31.4657 62.5169L32.3182 63.0398ZM34.6705 50.9205H33.6704L33.6705 50.9235L34.6705 50.9205ZM33.5966 42.0994L34.5508 41.8003L33.5966 42.0994ZM30.6307 37.0369L29.9707 37.7883L29.9765 37.7933L30.6307 37.0369ZM20.2756 39.108L19.4269 38.579L20.2756 39.108ZM17.8977 50.9205L16.8977 50.9141L16.8977 50.9158L17.8977 50.9205ZM18.946 59.9716L17.9888 60.2608L17.9893 60.2628L18.946 59.9716ZM21.9119 65.1875L21.2463 65.9338L21.2513 65.9382L21.9119 65.1875ZM26.2877 77.4318C21.6885 77.4153 17.7708 76.3541 14.4936 74.2876L13.4269 75.9794C17.0701 78.2766 21.3683 79.4142 26.2805 79.4318L26.2877 77.4318ZM14.4936 74.2876C11.215 72.2203 8.66998 69.2336 6.86711 65.2836L5.04767 66.1141C6.99479 70.3801 9.78502 73.6831 13.4269 75.9794L14.4936 74.2876ZM6.86711 65.2836C5.06598 61.3375 4.15372 56.5614 4.17045 50.9234L2.17046 50.9175C2.1531 56.7682 3.09879 61.8443 5.04767 66.1141L6.86711 65.2836ZM4.17045 50.9234C4.18719 45.2645 5.10837 40.5228 6.8908 36.6636L5.07511 35.825C3.14163 40.0113 2.18781 45.0537 2.17046 50.9175L4.17045 50.9234ZM6.88933 36.6668C8.68974 32.8041 11.2225 29.9031 14.4803 27.9195L13.4401 26.2112C9.81155 28.4207 7.02617 31.6391 5.07658 35.8219L6.88933 36.6668ZM14.4784 27.9206C17.7568 25.9342 21.6787 24.9205 26.2841 24.9205V22.9205C21.3781 22.9205 17.0841 24.0033 13.442 26.2101L14.4784 27.9206ZM26.2841 24.9205C30.8881 24.9205 34.8088 25.9421 38.0867 27.9443L39.1292 26.2375C35.4866 24.0125 31.1915 22.9205 26.2841 22.9205V24.9205ZM38.0897 27.9462C41.3642 29.9302 43.9046 32.831 45.7044 36.6923L47.5172 35.8474C45.567 31.6633 42.7721 28.4448 39.1262 26.2357L38.0897 27.9462ZM45.7044 36.6923C47.5019 40.5487 48.4145 45.2785 48.3977 50.9175L50.3977 50.9234C50.4151 45.0737 49.4697 40.0365 47.5172 35.8474L45.7044 36.6923ZM48.3977 50.9205C48.3977 56.5942 47.4768 61.3882 45.6755 65.3348L47.4949 66.1652C49.4436 61.8959 50.3977 56.8035 50.3977 50.9205H48.3977ZM45.6755 65.3348C43.8726 69.2847 41.3276 72.2715 38.049 74.3388L39.1158 76.0305C42.7576 73.7342 45.5478 70.4312 47.4949 66.1652L45.6755 65.3348ZM38.0501 74.3381C34.7918 76.3867 30.8839 77.4318 26.2841 77.4318V79.4318C31.1957 79.4318 35.4866 78.3122 39.1146 76.0312L38.0501 74.3381ZM26.2841 67.875C29.1675 67.875 31.4674 66.3395 33.1706 63.5626L31.4657 62.5169C30.0326 64.8537 28.3098 65.875 26.2841 65.875V67.875ZM33.1696 63.5642C34.9039 60.7483 35.6877 56.478 35.6704 50.9174L33.6705 50.9235C33.6873 56.3742 32.9029 60.1835 31.4667 62.5154L33.1696 63.5642ZM35.6705 50.9205C35.6705 47.268 35.3082 44.2168 34.5508 41.8003L32.6424 42.3985C33.3168 44.5502 33.6705 47.3797 33.6705 50.9205H35.6705ZM34.5508 41.8003C33.8022 39.412 32.7352 37.535 31.2848 36.2806L29.9765 37.7933C31.0489 38.7207 31.9591 40.2186 32.6424 42.3985L34.5508 41.8003ZM31.2906 36.2856C29.852 35.0219 28.1702 34.375 26.2841 34.375V36.375C27.6707 36.375 28.8867 36.836 29.9707 37.7882L31.2906 36.2856ZM26.2841 34.375C23.4126 34.375 21.1192 35.8639 19.4269 38.579L21.1242 39.6369C22.5342 37.3748 24.2465 36.375 26.2841 36.375V34.375ZM19.4269 38.579C17.7261 41.3078 16.9322 45.475 16.8977 50.9141L18.8977 50.9268C18.9315 45.5932 19.7228 41.8853 21.1242 39.6369L19.4269 38.579ZM16.8977 50.9158C16.8804 54.6371 17.2338 57.7623 17.9888 60.2608L19.9033 59.6823C19.2264 57.4422 18.8809 54.5333 18.8977 50.9251L16.8977 50.9158ZM17.9893 60.2628C18.7358 62.7154 19.7993 64.6432 21.2463 65.9338L22.5775 64.4412C21.5018 63.4818 20.588 61.9323 19.9027 59.6804L17.9893 60.2628ZM21.2513 65.9382C22.7042 67.2167 24.3939 67.875 26.2841 67.875V65.875C24.9015 65.875 23.6765 65.4083 22.5726 64.4368L21.2513 65.9382ZM85.3415 24.6364H86.3415V23.6364H85.3415V24.6364ZM85.3415 77V78H86.3415V77H85.3415ZM71.1256 77H70.1256V78H71.1256V77ZM71.1256 37.7273H72.1256V36.7273H71.1256V37.7273ZM70.8187 37.7273V36.7273H70.5425L70.3054 36.8691L70.8187 37.7273ZM59.3642 44.5795H58.3642V46.343L59.8776 45.4377L59.3642 44.5795ZM59.3642 32.5114L58.8428 31.6581L58.3642 31.9505V32.5114H59.3642ZM72.2506 24.6364V23.6364H71.9692L71.7291 23.7831L72.2506 24.6364ZM84.3415 24.6364V77H86.3415V24.6364H84.3415ZM85.3415 76H71.1256V78H85.3415V76ZM72.1256 77V37.7273H70.1256V77H72.1256ZM71.1256 36.7273H70.8187V38.7273H71.1256V36.7273ZM70.3054 36.8691L58.8508 43.7214L59.8776 45.4377L71.3321 38.5854L70.3054 36.8691ZM60.3642 44.5795V32.5114H58.3642V44.5795H60.3642ZM59.8857 33.3646L72.772 25.4896L71.7291 23.7831L58.8428 31.6581L59.8857 33.3646ZM72.2506 25.6364H85.3415V23.6364H72.2506V25.6364Z" fill="url(#paint0_linear_152_330)"/>
<defs>
<linearGradient id="paint0_linear_152_330" x1="8.89949e-07" y1="20.3129" x2="21.102" y2="109.085" gradientUnits="userSpaceOnUse">
<stop stop-color="#34B7F1"/>
<stop offset="1" stop-color="#2B70F4" stop-opacity="0"/>
</linearGradient>
</defs>
</svg>
