<svg width="97" height="56" viewBox="0 0 97 56" fill="none" xmlns="http://www.w3.org/2000/svg">
<path d="M23.2841 55.4318L23.2805 56.4318H23.2841V55.4318ZM10.9602 52.1335L10.4269 52.9794L10.9602 52.1335ZM2.95739 42.6989L2.04767 43.1141L2.95739 42.6989ZM0.170455 27.9205L1.17045 27.9234V27.9234L0.170455 27.9205ZM2.98295 13.2443L2.07657 12.8218L2.07511 12.825L2.98295 13.2443ZM10.9602 4.06534L10.442 3.21008L10.4401 3.21122L10.9602 4.06534ZM35.608 4.09091L35.0867 4.9443L35.0897 4.94616L35.608 4.09091ZM43.6108 13.2699L44.5172 12.8474L43.6108 13.2699ZM46.3977 27.9205L45.3977 27.9175V27.9205H46.3977ZM43.5852 42.75L44.4949 43.1652L43.5852 42.75ZM35.5824 52.1847L36.1146 53.0312L36.1158 53.0305L35.5824 52.1847ZM29.3182 40.0398L28.4667 39.5154L28.4657 39.5169L29.3182 40.0398ZM31.6705 27.9205H30.6704L30.6705 27.9235L31.6705 27.9205ZM30.5966 19.0994L31.5508 18.8003L30.5966 19.0994ZM27.6307 14.0369L26.9707 14.7883L26.9765 14.7933L27.6307 14.0369ZM17.2756 16.108L16.4269 15.579L17.2756 16.108ZM14.8977 27.9205L13.8977 27.9141L13.8977 27.9158L14.8977 27.9205ZM15.946 36.9716L14.9888 37.2608L14.9893 37.2628L15.946 36.9716ZM18.9119 42.1875L18.2463 42.9338L18.2513 42.9382L18.9119 42.1875ZM23.2877 54.4318C18.6885 54.4153 14.7708 53.3541 11.4936 51.2876L10.4269 52.9794C14.0701 55.2766 18.3683 56.4142 23.2805 56.4318L23.2877 54.4318ZM11.4936 51.2876C8.21498 49.2203 5.66998 46.2336 3.86711 42.2836L2.04767 43.1141C3.99479 47.3801 6.78502 50.6831 10.4269 52.9794L11.4936 51.2876ZM3.86711 42.2836C2.06598 38.3375 1.15372 33.5614 1.17045 27.9234L-0.829541 27.9175C-0.846902 33.7682 0.0987914 38.8443 2.04767 43.1141L3.86711 42.2836ZM1.17045 27.9234C1.18719 22.2645 2.10837 17.5228 3.8908 13.6636L2.07511 12.825C0.141632 17.0113 -0.812192 22.0537 -0.829541 27.9175L1.17045 27.9234ZM3.88933 13.6668C5.68974 9.8041 8.22254 6.90314 11.4803 4.91946L10.4401 3.21122C6.81155 5.42071 4.02617 8.63908 2.07658 12.8219L3.88933 13.6668ZM11.4784 4.9206C14.7568 2.93419 18.6787 1.92045 23.2841 1.92045V-0.0795479C18.3781 -0.0795479 14.0841 1.0033 10.442 3.21009L11.4784 4.9206ZM23.2841 1.92045C27.8881 1.92045 31.8088 2.94205 35.0867 4.9443L36.1292 3.23752C32.4866 1.01249 28.1915 -0.0795479 23.2841 -0.0795479V1.92045ZM35.0897 4.94616C38.3642 6.9302 40.9046 9.83099 42.7044 13.6923L44.5172 12.8474C42.567 8.66333 39.7721 5.44479 36.1262 3.23565L35.0897 4.94616ZM42.7044 13.6923C44.5019 17.5487 45.4145 22.2785 45.3977 27.9175L47.3977 27.9234C47.4151 22.0737 46.4697 17.0365 44.5172 12.8474L42.7044 13.6923ZM45.3977 27.9205C45.3977 33.5942 44.4768 38.3882 42.6755 42.3348L44.4949 43.1652C46.4436 38.8959 47.3977 33.8035 47.3977 27.9205H45.3977ZM42.6755 42.3348C40.8726 46.2847 38.3276 49.2715 35.049 51.3388L36.1158 53.0305C39.7576 50.7342 42.5478 47.4312 44.4949 43.1652L42.6755 42.3348ZM35.0501 51.3381C31.7918 53.3867 27.8839 54.4318 23.2841 54.4318V56.4318C28.1957 56.4318 32.4866 55.3122 36.1146 53.0312L35.0501 51.3381ZM23.2841 44.875C26.1675 44.875 28.4674 43.3395 30.1706 40.5626L28.4657 39.5169C27.0326 41.8537 25.3098 42.875 23.2841 42.875V44.875ZM30.1696 40.5642C31.9039 37.7483 32.6877 33.478 32.6704 27.9174L30.6705 27.9235C30.6873 33.3742 29.9029 37.1835 28.4667 39.5154L30.1696 40.5642ZM32.6705 27.9205C32.6705 24.268 32.3082 21.2168 31.5508 18.8003L29.6424 19.3985C30.3168 21.5502 30.6705 24.3797 30.6705 27.9205H32.6705ZM31.5508 18.8003C30.8022 16.412 29.7352 14.535 28.2848 13.2806L26.9765 14.7933C28.0489 15.7207 28.9591 17.2186 29.6424 19.3985L31.5508 18.8003ZM28.2906 13.2856C26.852 12.0219 25.1702 11.375 23.2841 11.375V13.375C24.6707 13.375 25.8867 13.836 26.9707 14.7882L28.2906 13.2856ZM23.2841 11.375C20.4126 11.375 18.1192 12.8639 16.4269 15.579L18.1242 16.6369C19.5342 14.3748 21.2465 13.375 23.2841 13.375V11.375ZM16.4269 15.579C14.7261 18.3078 13.9322 22.475 13.8977 27.9141L15.8977 27.9268C15.9315 22.5932 16.7228 18.8853 18.1242 16.6369L16.4269 15.579ZM13.8977 27.9158C13.8804 31.6371 14.2338 34.7623 14.9888 37.2608L16.9033 36.6823C16.2264 34.4422 15.8809 31.5333 15.8977 27.9251L13.8977 27.9158ZM14.9893 37.2628C15.7358 39.7154 16.7993 41.6432 18.2463 42.9338L19.5775 41.4412C18.5018 40.4818 17.588 38.9323 16.9027 36.6804L14.9893 37.2628ZM18.2513 42.9382C19.7042 44.2167 21.3939 44.875 23.2841 44.875V42.875C21.9015 42.875 20.6765 42.4083 19.5726 41.4368L18.2513 42.9382ZM56.671 54H55.671V55H56.671V54ZM56.671 43.7727L56.0336 43.0022L55.671 43.3021V43.7727H56.671ZM76.2051 27.6136L76.8425 28.3842L76.8433 28.3835L76.2051 27.6136ZM79.529 24.5966L78.8155 23.8959L78.8154 23.896L79.529 24.5966ZM81.6767 21.6562L80.7852 21.203L80.7793 21.2151L81.6767 21.6562ZM81.5744 14.8551L80.7128 15.3628L80.7196 15.3741L81.5744 14.8551ZM79.2222 12.6562L78.757 13.5416L78.7689 13.5476L79.2222 12.6562ZM72.2676 12.6562L71.8025 11.771L71.7962 11.7743L72.2676 12.6562ZM69.9665 14.983L69.0841 14.5124L69.9665 14.983ZM69.1483 18.7159V19.7159H70.1483V18.7159H69.1483ZM55.6483 18.7159H54.6483V19.7159H55.6483V18.7159ZM58.1284 9.20454L57.2792 8.6765L58.1284 9.20454ZM65.1341 3.06818L65.5628 3.97161L65.1341 3.06818ZM86.6369 2.94034L86.235 3.85605L86.2412 3.8587L86.6369 2.94034ZM93.7705 8.56534L92.9474 9.13335L92.9501 9.13725L93.7705 8.56534ZM95.0489 23.0881L95.9701 23.4772L95.9712 23.4744L95.0489 23.0881ZM90.5489 29.6591L91.2919 30.3283H91.2919L90.5489 29.6591ZM81.3187 38.25L81.9589 39.0182L81.3187 38.25ZM76.4097 42.3409L75.7695 41.5727L75.4097 41.8725V42.3409H76.4097ZM76.4097 42.6477H75.4097V43.6477H76.4097V42.6477ZM96.8642 42.6477H97.8642V41.6477H96.8642V42.6477ZM96.8642 54V55H97.8642V54H96.8642ZM57.671 54V43.7727H55.671V54H57.671ZM57.3084 44.5433L76.8425 28.3842L75.5677 26.8431L56.0336 43.0022L57.3084 44.5433ZM76.8433 28.3835C78.1582 27.2936 79.2926 26.2647 80.2425 25.2972L78.8154 23.896C77.9244 24.8035 76.843 25.786 75.5669 26.8438L76.8433 28.3835ZM80.2424 25.2973C81.2406 24.2809 82.0246 23.2153 82.5742 22.0974L80.7793 21.2151C80.3401 22.1085 79.6923 23.0032 78.8155 23.8959L80.2424 25.2973ZM82.5681 22.1095C83.157 20.9513 83.4437 19.6775 83.4437 18.3068H81.4437C81.4437 19.3907 81.2192 20.3498 80.7853 21.203L82.5681 22.1095ZM83.4437 18.3068C83.4437 16.815 83.1216 15.4766 82.4292 14.3361L80.7196 15.3741C81.1863 16.1427 81.4437 17.1054 81.4437 18.3068H83.4437ZM82.436 14.3474C81.7749 13.2255 80.8477 12.3609 79.6754 11.7649L78.7689 13.5476C79.608 13.9743 80.249 14.5756 80.7129 15.3628L82.436 14.3474ZM79.6873 11.771C78.5173 11.1563 77.1941 10.8636 75.7449 10.8636V12.8636C76.9206 12.8636 77.9156 13.0994 78.757 13.5415L79.6873 11.771ZM75.7449 10.8636C74.2956 10.8636 72.9725 11.1563 71.8025 11.771L72.7327 13.5415C73.5741 13.0994 74.5691 12.8636 75.7449 12.8636V10.8636ZM71.7962 11.7743C70.6267 12.3994 69.7194 13.3211 69.0841 14.5124L70.8488 15.4535C71.3044 14.5993 71.9313 13.9699 72.739 13.5382L71.7962 11.7743ZM69.0841 14.5124C68.4436 15.7133 68.1483 17.1283 68.1483 18.7159H70.1483C70.1483 17.3717 70.3984 16.2981 70.8488 15.4535L69.0841 14.5124ZM69.1483 17.7159H55.6483V19.7159H69.1483V17.7159ZM56.6483 18.7159C56.6483 15.1874 57.439 12.2071 58.9776 9.73258L57.2792 8.6765C55.511 11.5202 54.6483 14.8807 54.6483 18.7159H56.6483ZM58.9776 9.73258C60.5229 7.24733 62.707 5.32693 65.5628 3.97161L64.7053 2.16475C61.5271 3.67307 59.0407 5.84357 57.2792 8.6765L58.9776 9.73258ZM65.5628 3.97161C68.4202 2.61555 71.8051 1.92045 75.7449 1.92045V-0.0795479C71.5711 -0.0795479 67.882 0.657173 64.7053 2.16475L65.5628 3.97161ZM75.7449 1.92045C79.8334 1.92045 83.3211 2.57715 86.235 3.85603L87.0388 2.02465C83.8164 0.61035 80.0427 -0.0795479 75.7449 -0.0795479V1.92045ZM86.2412 3.8587C89.179 5.12474 91.3982 6.88856 92.9474 9.13334L94.5935 7.99734C92.8018 5.40121 90.2653 3.41504 87.0327 2.02198L86.2412 3.8587ZM92.9501 9.13725C94.5086 11.3727 95.3017 14.0063 95.3017 17.0795H97.3017C97.3017 13.6414 96.4073 10.5989 94.5908 7.99343L92.9501 9.13725ZM95.3017 17.0795C95.3017 18.9486 94.9144 20.8205 94.1265 22.7018L95.9712 23.4744C96.8538 21.367 97.3017 19.2332 97.3017 17.0795H95.3017ZM94.1277 22.6989C93.3519 24.5355 91.9299 26.6316 89.8058 28.9898L91.2919 30.3283C93.4974 27.8798 95.0754 25.5952 95.9701 23.4772L94.1277 22.6989ZM89.8058 28.9898C87.6861 31.3433 84.6497 34.1725 80.6786 37.4818L81.9589 39.0182C85.9651 35.6797 89.0821 32.7817 91.2919 30.3283L89.8058 28.9898ZM80.6786 37.4818L75.7695 41.5727L77.0498 43.1091L81.9589 39.0182L80.6786 37.4818ZM75.4097 42.3409V42.6477H77.4097V42.3409H75.4097ZM76.4097 43.6477H96.8642V41.6477H76.4097V43.6477ZM95.8642 42.6477V54H97.8642V42.6477H95.8642ZM96.8642 53H56.671V55H96.8642V53Z" fill="url(#paint0_linear_152_335)"/>
<defs>
<linearGradient id="paint0_linear_152_335" x1="-3" y1="-2.68714" x2="16.2434" y2="86.9709" gradientUnits="userSpaceOnUse">
<stop stop-color="#34B7F1"/>
<stop offset="1" stop-color="#2B70F4" stop-opacity="0"/>
</linearGradient>
</defs>
</svg>
