<svg width="99" height="56" viewBox="0 0 99 56" fill="none" xmlns="http://www.w3.org/2000/svg">
<path d="M23.2841 55.4318L23.2805 56.4318H23.2841V55.4318ZM10.9602 52.1335L10.4269 52.9794L10.9602 52.1335ZM2.95739 42.6989L2.04767 43.1141L2.95739 42.6989ZM0.170455 27.9205L1.17045 27.9234V27.9234L0.170455 27.9205ZM2.98295 13.2443L2.07657 12.8218L2.07511 12.825L2.98295 13.2443ZM10.9602 4.06534L10.442 3.21008L10.4401 3.21122L10.9602 4.06534ZM35.608 4.09091L35.0867 4.9443L35.0897 4.94616L35.608 4.09091ZM43.6108 13.2699L44.5172 12.8474L43.6108 13.2699ZM46.3977 27.9205L45.3977 27.9175V27.9205H46.3977ZM43.5852 42.75L44.4949 43.1652L43.5852 42.75ZM35.5824 52.1847L36.1146 53.0312L36.1158 53.0305L35.5824 52.1847ZM29.3182 40.0398L28.4667 39.5154L28.4657 39.5169L29.3182 40.0398ZM31.6705 27.9205H30.6704L30.6705 27.9235L31.6705 27.9205ZM30.5966 19.0994L31.5508 18.8003L30.5966 19.0994ZM27.6307 14.0369L26.9707 14.7883L26.9765 14.7933L27.6307 14.0369ZM17.2756 16.108L16.4269 15.579L17.2756 16.108ZM14.8977 27.9205L13.8977 27.9141L13.8977 27.9158L14.8977 27.9205ZM15.946 36.9716L14.9888 37.2608L14.9893 37.2628L15.946 36.9716ZM18.9119 42.1875L18.2463 42.9338L18.2513 42.9382L18.9119 42.1875ZM23.2877 54.4318C18.6885 54.4153 14.7708 53.3541 11.4936 51.2876L10.4269 52.9794C14.0701 55.2766 18.3683 56.4142 23.2805 56.4318L23.2877 54.4318ZM11.4936 51.2876C8.21498 49.2203 5.66998 46.2336 3.86711 42.2836L2.04767 43.1141C3.99479 47.3801 6.78502 50.6831 10.4269 52.9794L11.4936 51.2876ZM3.86711 42.2836C2.06598 38.3375 1.15372 33.5614 1.17045 27.9234L-0.829541 27.9175C-0.846902 33.7682 0.0987914 38.8443 2.04767 43.1141L3.86711 42.2836ZM1.17045 27.9234C1.18719 22.2645 2.10837 17.5228 3.8908 13.6636L2.07511 12.825C0.141632 17.0113 -0.812192 22.0537 -0.829541 27.9175L1.17045 27.9234ZM3.88933 13.6668C5.68974 9.8041 8.22254 6.90314 11.4803 4.91946L10.4401 3.21122C6.81155 5.42071 4.02617 8.63908 2.07658 12.8219L3.88933 13.6668ZM11.4784 4.9206C14.7568 2.93419 18.6787 1.92045 23.2841 1.92045V-0.0795479C18.3781 -0.0795479 14.0841 1.0033 10.442 3.21009L11.4784 4.9206ZM23.2841 1.92045C27.8881 1.92045 31.8088 2.94205 35.0867 4.9443L36.1292 3.23752C32.4866 1.01249 28.1915 -0.0795479 23.2841 -0.0795479V1.92045ZM35.0897 4.94616C38.3642 6.9302 40.9046 9.83099 42.7044 13.6923L44.5172 12.8474C42.567 8.66333 39.7721 5.44479 36.1262 3.23565L35.0897 4.94616ZM42.7044 13.6923C44.5019 17.5487 45.4145 22.2785 45.3977 27.9175L47.3977 27.9234C47.4151 22.0737 46.4697 17.0365 44.5172 12.8474L42.7044 13.6923ZM45.3977 27.9205C45.3977 33.5942 44.4768 38.3882 42.6755 42.3348L44.4949 43.1652C46.4436 38.8959 47.3977 33.8035 47.3977 27.9205H45.3977ZM42.6755 42.3348C40.8726 46.2847 38.3276 49.2715 35.049 51.3388L36.1158 53.0305C39.7576 50.7342 42.5478 47.4312 44.4949 43.1652L42.6755 42.3348ZM35.0501 51.3381C31.7918 53.3867 27.8839 54.4318 23.2841 54.4318V56.4318C28.1957 56.4318 32.4866 55.3122 36.1146 53.0312L35.0501 51.3381ZM23.2841 44.875C26.1675 44.875 28.4674 43.3395 30.1706 40.5626L28.4657 39.5169C27.0326 41.8537 25.3098 42.875 23.2841 42.875V44.875ZM30.1696 40.5642C31.9039 37.7483 32.6877 33.478 32.6704 27.9174L30.6705 27.9235C30.6873 33.3742 29.9029 37.1835 28.4667 39.5154L30.1696 40.5642ZM32.6705 27.9205C32.6705 24.268 32.3082 21.2168 31.5508 18.8003L29.6424 19.3985C30.3168 21.5502 30.6705 24.3797 30.6705 27.9205H32.6705ZM31.5508 18.8003C30.8022 16.412 29.7352 14.535 28.2848 13.2806L26.9765 14.7933C28.0489 15.7207 28.9591 17.2186 29.6424 19.3985L31.5508 18.8003ZM28.2906 13.2856C26.852 12.0219 25.1702 11.375 23.2841 11.375V13.375C24.6707 13.375 25.8867 13.836 26.9707 14.7882L28.2906 13.2856ZM23.2841 11.375C20.4126 11.375 18.1192 12.8639 16.4269 15.579L18.1242 16.6369C19.5342 14.3748 21.2465 13.375 23.2841 13.375V11.375ZM16.4269 15.579C14.7261 18.3078 13.9322 22.475 13.8977 27.9141L15.8977 27.9268C15.9315 22.5932 16.7228 18.8853 18.1242 16.6369L16.4269 15.579ZM13.8977 27.9158C13.8804 31.6371 14.2338 34.7623 14.9888 37.2608L16.9033 36.6823C16.2264 34.4422 15.8809 31.5333 15.8977 27.9251L13.8977 27.9158ZM14.9893 37.2628C15.7358 39.7154 16.7993 41.6432 18.2463 42.9338L19.5775 41.4412C18.5018 40.4818 17.588 38.9323 16.9027 36.6804L14.9893 37.2628ZM18.2513 42.9382C19.7042 44.2167 21.3939 44.875 23.2841 44.875V42.875C21.9015 42.875 20.6765 42.4083 19.5726 41.4368L18.2513 42.9382ZM66.1312 52.5938L65.7215 53.506L65.7274 53.5086L66.1312 52.5938ZM58.6142 46.6875L59.4227 46.099L58.6142 46.6875ZM55.8528 38.0455V37.0455H54.8476L54.8529 38.0507L55.8528 38.0455ZM70.171 38.0455L71.1709 38.0285L71.1542 37.0455H70.171V38.0455ZM71.0915 40.7557L70.2894 41.3529L70.2966 41.3626L70.304 41.372L71.0915 40.7557ZM73.5972 42.5966L73.2104 43.5188L73.5972 42.5966ZM80.7051 42.571L81.1213 43.4804L81.1339 43.4744L80.7051 42.571ZM83.0574 40.6023L83.8868 41.1609L83.0574 40.6023ZM83.8756 37.7386L82.8757 37.7225L82.8754 37.7385L82.8757 37.7545L83.8756 37.7386ZM82.904 34.9261L82.1199 35.5469L82.1279 35.5567L82.904 34.9261ZM70.7847 32.3182H69.7847V33.3182H70.7847V32.3182ZM70.7847 22.5V21.5H69.7847V22.5H70.7847ZM79.8358 21.8097L79.4471 20.8883L79.4419 20.8905L79.8358 21.8097ZM82.367 19.892L81.567 19.292L81.559 19.3029L82.367 19.892ZM83.2619 17.0795L82.2621 17.0629L82.2618 17.0793L82.2621 17.0957L83.2619 17.0795ZM82.5205 14.3693L81.6828 14.9156L81.6828 14.9156L82.5205 14.3693ZM80.3727 12.5284L79.9323 13.4262L79.9389 13.4294L80.3727 12.5284ZM73.7506 12.554L73.3402 11.642L73.3344 11.6447L73.7506 12.554ZM71.3727 14.4716L72.1888 15.0496V15.0496L71.3727 14.4716ZM70.4778 17.2841V18.2841H71.4618L71.4777 17.3002L70.4778 17.2841ZM56.8756 17.2841L55.8756 17.2788L55.8702 18.2841H56.8756V17.2841ZM59.5091 8.79545L58.6957 8.21367L58.6931 8.21744L59.5091 8.79545ZM66.7193 3.01704L67.1358 3.92619L66.7193 3.01704ZM87.4807 2.8892L87.076 3.80367L87.0779 3.80452L87.4807 2.8892ZM94.4608 8.30966L93.6515 8.89714L93.6565 8.90388L94.4608 8.30966ZM96.9665 16.1591L95.9665 16.1533L95.9664 16.162L95.9665 16.1707L96.9665 16.1591ZM93.9494 23.3693L93.2737 22.6322L93.2706 22.635L93.9494 23.3693ZM86.2278 26.6932L86.1192 25.6991L85.2278 25.7965V26.6932H86.2278ZM86.2278 27.1023H85.2278V27.9993L86.1196 28.0964L86.2278 27.1023ZM95.7648 30.9886L95.0577 31.6957L95.0605 31.6986L95.7648 30.9886ZM98.9097 38.9659L97.9097 38.9553L97.9096 38.9634L97.9097 38.9715L98.9097 38.9659ZM96.1483 47.1222L95.3614 46.5051L95.3586 46.5086L96.1483 47.1222ZM88.4523 52.696L88.0734 51.7706L88.0718 51.7712L88.4523 52.696ZM77.1256 53.7159C73.1153 53.7159 69.5919 53.0285 66.5351 51.6789L65.7274 53.5086C69.0797 54.9886 72.8859 55.7159 77.1256 55.7159V53.7159ZM66.541 51.6816C63.4917 50.3118 61.1316 48.4467 59.4227 46.099L57.8057 47.276C59.7446 49.9397 62.3958 52.0121 65.7215 53.5059L66.541 51.6816ZM59.4227 46.099C57.7287 43.7717 56.8688 41.0975 56.8528 38.0402L54.8529 38.0507C54.8709 41.5048 55.852 44.5919 57.8057 47.276L59.4227 46.099ZM55.8528 39.0455H70.171V37.0455H55.8528V39.0455ZM69.1712 38.0624C69.1917 39.2759 69.5668 40.3826 70.2894 41.3529L71.8935 40.1584C71.4229 39.5265 71.1844 38.8264 71.1709 38.0285L69.1712 38.0624ZM70.304 41.372C71.0379 42.3097 72.0201 43.0196 73.2104 43.5188L73.9839 41.6744C73.0605 41.2872 72.3724 40.7698 71.879 40.1394L70.304 41.372ZM73.2104 43.5188C74.4106 44.0221 75.7562 44.2614 77.2278 44.2614V42.2614C75.9722 42.2614 74.8973 42.0574 73.9839 41.6744L73.2104 43.5188ZM77.2278 44.2614C78.6575 44.2614 79.9629 44.0104 81.1212 43.4803L80.289 41.6617C79.436 42.0521 78.4232 42.2614 77.2278 42.2614V44.2614ZM81.1339 43.4744C82.284 42.9286 83.2138 42.1602 83.8868 41.1609L82.228 40.0437C81.776 40.7147 81.1376 41.2589 80.2764 41.6676L81.1339 43.4744ZM83.8868 41.1609C84.5713 40.1445 84.8955 38.9867 84.8754 37.7228L82.8757 37.7545C82.8897 38.6383 82.6685 39.3895 82.228 40.0437L83.8868 41.1609ZM84.8754 37.7548C84.8963 36.4634 84.4936 35.2968 83.6801 34.2955L82.1279 35.5567C82.6439 36.1918 82.889 36.9002 82.8757 37.7225L84.8754 37.7548ZM83.688 34.3054C82.9094 33.3219 81.839 32.5885 80.5326 32.0773L79.8038 33.9398C80.8497 34.349 81.6031 34.894 82.1199 35.5468L83.688 34.3054ZM80.5326 32.0773C79.2183 31.563 77.7356 31.3182 76.1028 31.3182V33.3182C77.5383 33.3182 78.7657 33.5336 79.8038 33.9398L80.5326 32.0773ZM76.1028 31.3182H70.7847V33.3182H76.1028V31.3182ZM71.7847 32.3182V22.5H69.7847V32.3182H71.7847ZM70.7847 23.5H76.1028V21.5H70.7847V23.5ZM76.1028 23.5C77.6251 23.5 79.008 23.2524 80.2297 22.7288L79.4419 20.8905C78.5158 21.2874 77.4101 21.5 76.1028 21.5V23.5ZM80.2245 22.731C81.4541 22.2123 82.4545 21.4694 83.175 20.4812L81.559 19.3029C81.0864 19.951 80.3994 20.4866 79.4471 20.8883L80.2245 22.731ZM83.167 20.492C83.9185 19.4901 84.2823 18.3341 84.2618 17.0634L82.2621 17.0957C82.2757 17.9386 82.0428 18.6577 81.567 19.292L83.167 20.492ZM84.2618 17.0962C84.2818 15.8932 83.9886 14.7899 83.3581 13.8231L81.6828 14.9156C82.075 15.5169 82.2761 16.2205 82.2621 17.0629L84.2618 17.0962ZM83.3581 13.8231C82.738 12.8723 81.8759 12.1423 80.8065 11.6274L79.9389 13.4294C80.7104 13.8009 81.2802 14.2982 81.6828 14.9156L83.3581 13.8231ZM80.8132 11.6306C79.7495 11.1088 78.5456 10.8636 77.2278 10.8636V12.8636C78.2965 12.8636 79.1892 13.0616 79.9323 13.4262L80.8132 11.6306ZM77.2278 10.8636C75.8127 10.8636 74.5105 11.1154 73.3402 11.6421L74.1609 13.4659C75.0361 13.0721 76.052 12.8636 77.2278 12.8636V10.8636ZM73.3344 11.6447C72.1856 12.1704 71.2483 12.9172 70.5567 13.8936L72.1888 15.0496C72.6562 14.3896 73.3042 13.858 74.1667 13.4633L73.3344 11.6447ZM70.5567 13.8936C69.8541 14.8854 69.4981 16.0211 69.478 17.268L71.4777 17.3002C71.4917 16.4334 71.7322 15.6941 72.1888 15.0496L70.5567 13.8936ZM70.4778 16.2841H56.8756V18.2841H70.4778V16.2841ZM57.8756 17.2894C57.8916 14.2759 58.7131 11.6493 60.3251 9.37347L58.6931 8.21744C56.8278 10.8507 55.8936 13.8831 55.8756 17.2788L57.8756 17.2894ZM60.3224 9.37722C61.9656 7.07998 64.2251 5.2596 67.1358 3.92619L66.3028 2.1079C63.1113 3.56994 60.5639 5.60184 58.6957 8.21368L60.3224 9.37722ZM67.1358 3.92619C70.035 2.59806 73.3917 1.92045 77.2278 1.92045V-0.0795479C73.1549 -0.0795479 69.5059 0.640572 66.3028 2.1079L67.1358 3.92619ZM77.2278 1.92045C80.9842 1.92045 84.2597 2.55737 87.076 3.80366L87.8854 1.97474C84.7698 0.596033 81.2101 -0.0795479 77.2278 -0.0795479V1.92045ZM87.0779 3.80452C89.9228 5.05626 92.0996 6.75922 93.6515 8.89712L95.2701 7.7222C93.4811 5.25782 91.0045 3.34715 87.8834 1.97389L87.0779 3.80452ZM93.6565 8.90388C95.2105 11.0073 95.9823 13.4114 95.9665 16.1533L97.9665 16.1649C97.9847 13.009 97.0861 10.1802 95.2651 7.71544L93.6565 8.90388ZM95.9665 16.1707C95.9975 18.8364 95.0965 20.9613 93.2737 22.6322L94.6252 24.1065C96.8933 22.0273 98.0036 19.3454 97.9664 16.1475L95.9665 16.1707ZM93.2706 22.635C91.4205 24.3452 89.0558 25.3782 86.1192 25.6991L86.3365 27.6873C89.6385 27.3264 92.4215 26.1434 94.6282 24.1036L93.2706 22.635ZM85.2278 26.6932V27.1023H87.2278V26.6932H85.2278ZM86.1196 28.0964C90.2118 28.5419 93.1429 29.781 95.0577 31.6957L96.4719 30.2815C94.1253 27.935 90.6985 26.5831 86.3361 26.1081L86.1196 28.0964ZM95.0605 31.6986C96.9853 33.6079 97.9411 36.0006 97.9097 38.9553L99.9096 38.9765C99.9464 35.5221 98.8056 32.5966 96.469 30.2787L95.0605 31.6986ZM97.9097 38.9715C97.9255 41.8187 97.0773 44.317 95.3614 46.5051L96.9352 47.7392C98.9352 45.1887 99.9279 42.2495 99.9096 38.9604L97.9097 38.9715ZM95.3586 46.5086C93.6433 48.7163 91.2314 50.4779 88.0735 51.7706L88.8311 53.6215C92.2527 52.2209 94.9714 50.2667 96.938 47.7357L95.3586 46.5086ZM88.0718 51.7712C84.9421 53.059 81.3001 53.7159 77.1256 53.7159V55.7159C81.5079 55.7159 85.417 55.0263 88.8328 53.6208L88.0718 51.7712Z" fill="url(#paint0_linear_152_337)"/>
<defs>
<linearGradient id="paint0_linear_152_337" x1="-3" y1="-2.68714" x2="15.9083" y2="87.1202" gradientUnits="userSpaceOnUse">
<stop stop-color="#34B7F1"/>
<stop offset="1" stop-color="#2B70F4" stop-opacity="0"/>
</linearGradient>
</defs>
</svg>
