<svg width="102" height="56" viewBox="0 0 102 56" fill="none" xmlns="http://www.w3.org/2000/svg">
<path d="M23.2841 55.4318L23.2805 56.4318H23.2841V55.4318ZM10.9602 52.1335L10.4269 52.9794L10.9602 52.1335ZM2.95739 42.6989L2.04767 43.1141L2.95739 42.6989ZM0.170455 27.9205L1.17045 27.9234V27.9234L0.170455 27.9205ZM2.98295 13.2443L2.07657 12.8218L2.07511 12.825L2.98295 13.2443ZM10.9602 4.06534L10.442 3.21008L10.4401 3.21122L10.9602 4.06534ZM35.608 4.09091L35.0867 4.9443L35.0897 4.94616L35.608 4.09091ZM43.6108 13.2699L44.5172 12.8474L43.6108 13.2699ZM46.3977 27.9205L45.3977 27.9175V27.9205H46.3977ZM43.5852 42.75L44.4949 43.1652L43.5852 42.75ZM35.5824 52.1847L36.1146 53.0312L36.1158 53.0305L35.5824 52.1847ZM29.3182 40.0398L28.4667 39.5154L28.4657 39.5169L29.3182 40.0398ZM31.6705 27.9205H30.6704L30.6705 27.9235L31.6705 27.9205ZM30.5966 19.0994L31.5508 18.8003L30.5966 19.0994ZM27.6307 14.0369L26.9707 14.7883L26.9765 14.7933L27.6307 14.0369ZM17.2756 16.108L16.4269 15.579L17.2756 16.108ZM14.8977 27.9205L13.8977 27.9141L13.8977 27.9158L14.8977 27.9205ZM15.946 36.9716L14.9888 37.2608L14.9893 37.2628L15.946 36.9716ZM18.9119 42.1875L18.2463 42.9338L18.2513 42.9382L18.9119 42.1875ZM23.2877 54.4318C18.6885 54.4153 14.7708 53.3541 11.4936 51.2876L10.4269 52.9794C14.0701 55.2766 18.3683 56.4142 23.2805 56.4318L23.2877 54.4318ZM11.4936 51.2876C8.21498 49.2203 5.66998 46.2336 3.86711 42.2836L2.04767 43.1141C3.99479 47.3801 6.78502 50.6831 10.4269 52.9794L11.4936 51.2876ZM3.86711 42.2836C2.06598 38.3375 1.15372 33.5614 1.17045 27.9234L-0.829541 27.9175C-0.846902 33.7682 0.0987914 38.8443 2.04767 43.1141L3.86711 42.2836ZM1.17045 27.9234C1.18719 22.2645 2.10837 17.5228 3.8908 13.6636L2.07511 12.825C0.141632 17.0113 -0.812192 22.0537 -0.829541 27.9175L1.17045 27.9234ZM3.88933 13.6668C5.68974 9.8041 8.22254 6.90314 11.4803 4.91946L10.4401 3.21122C6.81155 5.42071 4.02617 8.63908 2.07658 12.8219L3.88933 13.6668ZM11.4784 4.9206C14.7568 2.93419 18.6787 1.92045 23.2841 1.92045V-0.0795479C18.3781 -0.0795479 14.0841 1.0033 10.442 3.21009L11.4784 4.9206ZM23.2841 1.92045C27.8881 1.92045 31.8088 2.94205 35.0867 4.9443L36.1292 3.23752C32.4866 1.01249 28.1915 -0.0795479 23.2841 -0.0795479V1.92045ZM35.0897 4.94616C38.3642 6.9302 40.9046 9.83099 42.7044 13.6923L44.5172 12.8474C42.567 8.66333 39.7721 5.44479 36.1262 3.23565L35.0897 4.94616ZM42.7044 13.6923C44.5019 17.5487 45.4145 22.2785 45.3977 27.9175L47.3977 27.9234C47.4151 22.0737 46.4697 17.0365 44.5172 12.8474L42.7044 13.6923ZM45.3977 27.9205C45.3977 33.5942 44.4768 38.3882 42.6755 42.3348L44.4949 43.1652C46.4436 38.8959 47.3977 33.8035 47.3977 27.9205H45.3977ZM42.6755 42.3348C40.8726 46.2847 38.3276 49.2715 35.049 51.3388L36.1158 53.0305C39.7576 50.7342 42.5478 47.4312 44.4949 43.1652L42.6755 42.3348ZM35.0501 51.3381C31.7918 53.3867 27.8839 54.4318 23.2841 54.4318V56.4318C28.1957 56.4318 32.4866 55.3122 36.1146 53.0312L35.0501 51.3381ZM23.2841 44.875C26.1675 44.875 28.4674 43.3395 30.1706 40.5626L28.4657 39.5169C27.0326 41.8537 25.3098 42.875 23.2841 42.875V44.875ZM30.1696 40.5642C31.9039 37.7483 32.6877 33.478 32.6704 27.9174L30.6705 27.9235C30.6873 33.3742 29.9029 37.1835 28.4667 39.5154L30.1696 40.5642ZM32.6705 27.9205C32.6705 24.268 32.3082 21.2168 31.5508 18.8003L29.6424 19.3985C30.3168 21.5502 30.6705 24.3797 30.6705 27.9205H32.6705ZM31.5508 18.8003C30.8022 16.412 29.7352 14.535 28.2848 13.2806L26.9765 14.7933C28.0489 15.7207 28.9591 17.2186 29.6424 19.3985L31.5508 18.8003ZM28.2906 13.2856C26.852 12.0219 25.1702 11.375 23.2841 11.375V13.375C24.6707 13.375 25.8867 13.836 26.9707 14.7882L28.2906 13.2856ZM23.2841 11.375C20.4126 11.375 18.1192 12.8639 16.4269 15.579L18.1242 16.6369C19.5342 14.3748 21.2465 13.375 23.2841 13.375V11.375ZM16.4269 15.579C14.7261 18.3078 13.9322 22.475 13.8977 27.9141L15.8977 27.9268C15.9315 22.5932 16.7228 18.8853 18.1242 16.6369L16.4269 15.579ZM13.8977 27.9158C13.8804 31.6371 14.2338 34.7623 14.9888 37.2608L16.9033 36.6823C16.2264 34.4422 15.8809 31.5333 15.8977 27.9251L13.8977 27.9158ZM14.9893 37.2628C15.7358 39.7154 16.7993 41.6432 18.2463 42.9338L19.5775 41.4412C18.5018 40.4818 17.588 38.9323 16.9027 36.6804L14.9893 37.2628ZM18.2513 42.9382C19.7042 44.2167 21.3939 44.875 23.2841 44.875V42.875C21.9015 42.875 20.6765 42.4083 19.5726 41.4368L18.2513 42.9382ZM56.1597 45.8182H55.1597V46.8182H56.1597V45.8182ZM56.1597 34.7727L55.3158 34.2362L55.1597 34.4817V34.7727H56.1597ZM77.2278 1.63636V0.636362H76.6786L76.384 1.09982L77.2278 1.63636ZM87.2506 1.63636H88.2506V0.636362H87.2506V1.63636ZM87.2506 16.3636V17.3636H88.2506V16.3636H87.2506ZM81.5233 16.3636V15.3636H80.9717L80.6775 15.8302L81.5233 16.3636ZM70.171 34.3636L69.3252 33.8302L69.171 34.0746V34.3636H70.171ZM70.171 34.7727H69.171V35.7727H70.171V34.7727ZM101.262 34.7727H102.262V33.7727H101.262V34.7727ZM101.262 45.8182V46.8182H102.262V45.8182H101.262ZM81.6256 54H80.6256V55H81.6256V54ZM81.6256 42.4432L80.6276 42.3795L80.6256 42.4113V42.4432H81.6256ZM81.9324 37.6364L82.9304 37.7001L82.9324 37.6682V37.6364H81.9324ZM81.9324 1.63636V0.636362H80.9324V1.63636H81.9324ZM95.2278 1.63636H96.2278V0.636362H95.2278V1.63636ZM95.2278 54V55H96.2278V54H95.2278ZM57.1597 45.8182V34.7727H55.1597V45.8182H57.1597ZM57.0035 35.3093L78.0717 2.1729L76.384 1.09982L55.3158 34.2362L57.0035 35.3093ZM77.2278 2.63636H87.2506V0.636362H77.2278V2.63636ZM86.2506 1.63636V16.3636H88.2506V1.63636H86.2506ZM87.2506 15.3636H81.5233V17.3636H87.2506V15.3636ZM80.6775 15.8302L69.3252 33.8302L71.0169 34.8971L82.3691 16.8971L80.6775 15.8302ZM69.171 34.3636V34.7727H71.171V34.3636H69.171ZM70.171 35.7727H101.262V33.7727H70.171V35.7727ZM100.262 34.7727V45.8182H102.262V34.7727H100.262ZM101.262 44.8182H56.1597V46.8182H101.262V44.8182ZM82.6256 54V42.4432H80.6256V54H82.6256ZM82.6235 42.5069L82.9304 37.7001L80.9344 37.5727L80.6276 42.3795L82.6235 42.5069ZM82.9324 37.6364V1.63636H80.9324V37.6364H82.9324ZM81.9324 2.63636H95.2278V0.636362H81.9324V2.63636ZM94.2278 1.63636V54H96.2278V1.63636H94.2278ZM95.2278 53H81.6256V55H95.2278V53Z" fill="url(#paint0_linear_152_339)"/>
<defs>
<linearGradient id="paint0_linear_152_339" x1="-3" y1="-2.68714" x2="15.5841" y2="87.2616" gradientUnits="userSpaceOnUse">
<stop stop-color="#34B7F1"/>
<stop offset="1" stop-color="#2B70F4" stop-opacity="0"/>
</linearGradient>
</defs>
</svg>
