<svg width="24" height="24" viewBox="0 0 24 24" fill="none" xmlns="http://www.w3.org/2000/svg">
<g clip-path="url(#clip0_152_821)">
<path d="M0 4.48041V19.243H7.1554C7.8167 19.243 8.4632 19.1598 9.0851 18.995C9.7139 18.8296 10.2756 18.5747 10.7643 18.2289C11.2493 17.8858 11.6427 17.4409 11.932 16.892C12.2182 16.35 12.3614 15.705 12.3614 14.9566C12.3614 14.0334 12.1424 13.2457 11.6939 12.5876C11.2479 11.9334 10.5752 11.4737 9.6665 11.213C10.3339 10.8969 10.8323 10.4903 11.1725 9.99531C11.5096 9.49861 11.6783 8.87791 11.6783 8.13461C11.6783 7.44731 11.5656 6.86691 11.3408 6.40281C11.1102 5.93191 10.7888 5.55761 10.3776 5.27621C9.96 4.99541 9.4656 4.79051 8.8864 4.66771C8.3037 4.54161 7.6664 4.48051 6.96 4.48051L0 4.48041ZM15.6674 5.47071V6.92741H21.6518V5.47071H15.6674ZM3.2509 6.99471H6.2916C6.5789 6.99471 6.8599 7.01511 7.1275 7.06781C7.4003 7.11441 7.6355 7.20181 7.8435 7.32731C8.0531 7.44781 8.2189 7.62031 8.3445 7.84051C8.4653 8.06081 8.5251 8.34431 8.5251 8.68791C8.5251 9.30681 8.344 9.75811 7.97 10.0305C7.5922 10.308 7.1157 10.4452 6.5396 10.4452H3.2509V6.99471ZM18.7959 8.25111C17.9769 8.25111 17.2372 8.39731 16.5665 8.68711C15.896 8.97751 15.3202 9.37461 14.8347 9.87861C14.3501 10.3797 13.9812 10.9772 13.7147 11.6695C13.4535 12.3595 13.3205 13.1061 13.3205 13.9055C13.3205 14.7323 13.4489 15.4946 13.704 16.1841C13.962 16.8764 14.3238 17.4663 14.7896 17.9651C15.2676 18.4618 15.8356 18.8435 16.5156 19.1148C17.1962 19.3838 17.9538 19.5196 18.7959 19.5196C20.0039 19.5196 21.0405 19.2425 21.8908 18.687C22.7507 18.1342 23.381 17.216 23.7966 15.9296H21.2116C21.1116 16.2603 20.8526 16.5786 20.4276 16.8763C19.9981 17.1751 19.4859 17.3255 18.8936 17.3255C18.0703 17.3255 17.4348 17.1087 16.9951 16.6793C16.5539 16.2499 16.2684 15.4504 16.2684 14.6051H23.9814C24.0366 13.776 23.9692 12.9833 23.7769 12.2254C23.5831 11.4653 23.2736 10.7889 22.8376 10.1964C22.4021 9.60331 21.8472 9.12971 21.1706 8.77991C20.4918 8.42561 19.7003 8.25111 18.7959 8.25111ZM18.7072 10.4681C19.4281 10.4681 20.0198 10.6773 20.3684 11.0635C20.7187 11.4525 20.9749 12.0067 21.045 12.755H16.2684C16.282 12.5465 16.3264 12.3106 16.4023 12.0505C16.4772 11.7837 16.6062 11.5341 16.7956 11.2975C16.9861 11.0649 17.2358 10.8665 17.5396 10.7079C17.8505 10.5471 18.2382 10.4682 18.7072 10.4682V10.4681ZM3.251 12.664H6.7844C7.484 12.664 8.0526 12.8242 8.4792 13.1476C8.9051 13.4756 9.1197 14.0161 9.1197 14.7768C9.1197 15.1653 9.0565 15.4862 8.9251 15.7334C8.7941 15.9829 8.6145 16.18 8.3971 16.323C8.1799 16.4721 7.9218 16.5728 7.631 16.6367C7.3448 16.7006 7.0405 16.7287 6.7195 16.7287H3.2509L3.251 12.664Z" fill="white"/>
</g>
<defs>
<clipPath id="clip0_152_821">
<rect width="24" height="24" fill="white"/>
</clipPath>
</defs>
</svg>
