<svg width="169" height="31" viewBox="0 0 169 31" fill="none" xmlns="http://www.w3.org/2000/svg">
<path fill-rule="evenodd" clip-rule="evenodd" d="M0 0L19.1908 13.4541L5.4831 23.0641V31H1.33514e-05V26.9081L0 26.9081V0Z" fill="url(#paint0_linear_152_774)"/>
<path d="M40.2373 17.9541V25H39.0947V4.6875H44.4268C45.9756 4.89909 47.2917 5.54655 48.375 6.62988C49.6699 7.9248 50.3174 9.48633 50.3174 11.3145C50.3174 13.151 49.6699 14.7168 48.375 16.0117C47.0801 17.3066 45.5186 17.9541 43.6904 17.9541H40.2373ZM40.2373 5.84277V16.7988H43.6904C45.1969 16.7988 46.4834 16.2656 47.5498 15.1992C48.6247 14.1243 49.1621 12.8294 49.1621 11.3145C49.1621 9.79948 48.6247 8.50879 47.5498 7.44238C46.4834 6.37598 45.1969 5.84277 43.6904 5.84277H40.2373ZM66.2617 25H65.1191V22.4609C64.899 22.7572 64.6578 23.0407 64.3955 23.3115C63.0328 24.6742 61.3867 25.3555 59.457 25.3555C57.5358 25.3555 55.8938 24.6742 54.5312 23.3115C53.1686 21.9489 52.4873 20.307 52.4873 18.3857C52.4873 16.4561 53.1686 14.8099 54.5312 13.4473C55.8938 12.0846 57.5358 11.4033 59.457 11.4033C61.3867 11.4033 63.0328 12.0846 64.3955 13.4473C64.6578 13.7181 64.899 14.0016 65.1191 14.2979V12.5332H66.2617V25ZM65.1191 19.5156V17.2559C64.9075 16.1387 64.3785 15.1569 63.5322 14.3105C62.4065 13.1849 61.0481 12.6221 59.457 12.6221C57.8658 12.6221 56.5074 13.1849 55.3818 14.3105C54.2561 15.4362 53.6933 16.7946 53.6933 18.3857C53.6933 19.9769 54.2561 21.3353 55.3818 22.4609C56.5074 23.5781 57.8658 24.1367 59.457 24.1367C61.0481 24.1367 62.4065 23.5739 63.5322 22.4482C64.3785 21.6019 64.9075 20.6243 65.1191 19.5156ZM83.412 17.1924C83.192 16.1006 82.6672 15.14 81.8378 14.3105C80.7122 13.1849 79.3538 12.6221 77.7626 12.6221C76.1715 12.6221 74.8131 13.1849 73.6874 14.3105C72.5618 15.4362 71.9989 16.7946 71.9989 18.3857C71.9989 19.9769 72.5618 21.3353 73.6874 22.4609C74.8131 23.5866 76.1715 24.1494 77.7626 24.1494C79.3538 24.1494 80.7122 23.5866 81.8378 22.4609C82.6588 21.64 83.1835 20.6878 83.412 19.6045V17.1924ZM83.3866 22.5244C83.1751 22.7952 82.9465 23.0576 82.7011 23.3115C81.3385 24.6742 79.6923 25.3555 77.7626 25.3555C75.8414 25.3555 74.1995 24.6742 72.8368 23.3115C71.4742 21.9489 70.7929 20.307 70.7929 18.3857C70.7929 16.4561 71.4742 14.8141 72.8368 13.46C74.1995 12.0973 75.8414 11.416 77.7626 11.416C79.6923 11.416 81.3385 12.0931 82.7011 13.4473C82.9635 13.7181 83.2047 14.0016 83.4247 14.2979V12.5332H84.5673V22.2197C84.5673 24.0902 83.9029 25.6898 82.5741 27.0186C81.2115 28.3812 79.5696 29.0625 77.6484 29.0625C75.7187 29.0625 74.0725 28.3812 72.7099 27.0186C72.4306 26.7393 72.1809 26.4473 71.9609 26.1426L73.1669 25.7109C73.2939 25.8633 73.4293 26.0114 73.5732 26.1553C74.6988 27.2809 76.0572 27.8438 77.6484 27.8438C79.231 27.8438 80.5852 27.2809 81.7109 26.1553C82.7349 25.1312 83.2935 23.9209 83.3866 22.5244ZM91.8407 22.6641C92.9156 23.6458 94.1936 24.1367 95.6747 24.1367C97.2658 24.1367 98.6242 23.5739 99.7499 22.4482C99.8938 22.3044 100.029 22.1562 100.156 22.0039L101.362 22.4355C101.142 22.7402 100.892 23.0322 100.613 23.3115C99.2505 24.6742 97.6044 25.3555 95.6747 25.3555C93.7535 25.3555 92.1115 24.6742 90.7489 23.3115C89.3863 21.9489 88.705 20.3027 88.705 18.373C88.705 16.4518 89.3863 14.8099 90.7489 13.4473C92.1115 12.0846 93.7535 11.4033 95.6747 11.4033C97.3251 11.4033 98.7681 11.8984 100.004 12.8887C100.207 13.0579 100.41 13.2441 100.613 13.4473C100.689 13.5234 100.761 13.5996 100.829 13.6758L99.9657 14.5391L91.8407 22.6641ZM99.1278 13.7646C98.1376 13.0029 96.9865 12.6221 95.6747 12.6221C94.092 12.6221 92.7378 13.1849 91.6122 14.3105C90.4865 15.4277 89.9237 16.7819 89.9237 18.373C89.9237 19.6849 90.3046 20.8359 91.0663 21.8262L99.1278 13.7646Z" fill="white"/>
<path d="M115.229 25H127.334V21.7038H119.227V6.09091H115.229V25ZM134.763 25L136.166 20.6882H142.989L144.393 25H148.677L142.158 6.09091H137.006L130.479 25H134.763ZM137.182 17.5675L139.509 10.4119H139.656L141.983 17.5675H137.182ZM151.993 25H160.072C164.319 25 166.581 22.7841 166.581 19.7741C166.581 16.9766 164.577 15.2869 162.426 15.1854V15.0007C164.393 14.5575 165.842 13.1634 165.842 10.9382C165.842 8.10369 163.737 6.09091 159.564 6.09091H151.993V25ZM155.991 21.7315V16.7088H159.342C161.263 16.7088 162.454 17.8168 162.454 19.3771C162.454 20.799 161.484 21.7315 159.25 21.7315H155.991ZM155.991 14.0036V9.32244H159.028C160.801 9.32244 161.807 10.2365 161.807 11.603C161.807 13.0987 160.589 14.0036 158.954 14.0036H155.991Z" fill="url(#paint1_linear_152_774)"/>
<defs>
<linearGradient id="paint0_linear_152_774" x1="1.83643e-07" y1="6.23464" x2="9.04709" y2="31.8224" gradientUnits="userSpaceOnUse">
<stop stop-color="#34B7F1"/>
<stop offset="1" stop-color="#2B70F4"/>
</linearGradient>
<linearGradient id="paint1_linear_152_774" x1="37.1904" y1="6.23464" x2="38.6775" y2="34.9441" gradientUnits="userSpaceOnUse">
<stop stop-color="#34B7F1"/>
<stop offset="1" stop-color="#2B70F4"/>
</linearGradient>
</defs>
</svg>
