<svg width="551" height="537" viewBox="0 0 551 537" fill="none" xmlns="http://www.w3.org/2000/svg">
<path d="M130.198 465.027L129.951 463.078C134.487 462.965 138.474 464.397 141.911 467.372C145.597 470.564 147.619 474.582 147.977 479.426C148.316 484.271 146.889 488.537 143.697 492.223C140.515 495.898 136.502 497.915 131.658 498.274C126.803 498.623 122.532 497.201 118.846 494.01C115.41 491.034 113.422 487.293 112.885 482.787L114.864 482.737C115.379 486.654 117.139 489.913 120.142 492.514C123.405 495.339 127.191 496.597 131.5 496.287C135.808 495.978 139.376 494.191 142.201 490.928C145.036 487.654 146.299 483.862 145.989 479.553C145.679 475.245 143.892 471.678 140.629 468.852C137.626 466.252 134.149 464.977 130.198 465.027Z" fill="white"/>
<path d="M46.6631 391.471C45.4424 388.438 45.4748 385.426 46.7601 382.435C48.04 379.431 50.1967 377.319 53.23 376.098C56.25 374.883 59.2619 374.915 62.2658 376.195C65.2643 377.462 67.3739 379.612 68.5946 382.645C69.8099 385.665 69.7776 388.677 68.4976 391.681C67.2176 394.685 65.0677 396.794 62.0477 398.01C59.0144 399.23 55.9958 399.201 52.9919 397.921C49.988 396.641 47.8784 394.491 46.6631 391.471ZM48.5789 390.7C49.5854 393.201 51.3294 394.98 53.8108 396.038C56.2923 397.095 58.7836 397.121 61.2848 396.114C63.7859 395.107 65.5651 393.363 66.6225 390.882C67.6666 388.406 67.6853 385.917 66.6788 383.416C65.6723 380.915 63.935 379.133 61.4668 378.07C58.9853 377.013 56.494 376.988 53.9929 377.994C51.4918 379.001 49.7125 380.745 48.6551 383.226C47.5978 385.708 47.5723 388.199 48.5789 390.7Z" fill="white"/>
<path d="M26.6416 298.058L43.0535 298.246L43.0313 300.182L21.9087 299.94L21.9309 298.004L23.2861 298.02C21.5568 296.236 20.7056 294.175 20.7325 291.838C20.7611 289.343 21.5659 287.322 23.1469 285.777C24.7278 284.232 26.7088 283.452 29.0897 283.436L43.2216 283.598L43.1993 285.534L29.2395 285.374C27.4471 285.353 25.9124 285.988 24.6355 287.279C23.3445 288.555 22.6887 290.082 22.6683 291.86C22.6479 293.638 23.2541 295.18 24.4869 296.484C25.1814 297.195 25.8997 297.72 26.6416 298.058Z" fill="white"/>
<path d="M41.6929 208.778C40.3076 210.04 39.2127 210.863 38.4082 211.25C37.1468 211.855 35.8598 211.928 34.5473 211.467C33.2213 211.001 32.2555 210.138 31.6497 208.876C31.0305 207.61 30.9513 206.32 31.4123 205.008C31.878 203.682 32.6958 202.738 33.8659 202.176C35.013 201.637 36.1277 201.557 37.2102 201.937L37.3116 201.973L37.3848 203.777C36.309 203.551 35.4237 203.605 34.729 203.939C34.039 204.259 33.5491 204.831 33.2592 205.657C32.9741 206.468 33.0202 207.267 33.3977 208.054C33.7617 208.835 34.3563 209.371 35.1817 209.661C35.9935 209.946 36.7925 209.899 37.5787 209.522C38.0357 209.302 38.8017 208.766 39.8767 207.912C41.4321 206.513 42.7034 205.576 43.6907 205.102C45.2582 204.361 46.8471 204.273 48.4572 204.838C50.1079 205.418 51.3132 206.487 52.0729 208.046C52.819 209.6 52.9046 211.196 52.3297 212.833C51.7547 214.47 50.6902 215.662 49.1362 216.408C47.5686 217.15 46.0948 217.278 44.7147 216.793L44.8822 214.823C46.0729 215.241 47.2076 215.191 48.2863 214.673C49.3697 214.142 50.1086 213.315 50.503 212.191C50.8974 211.068 50.8357 209.968 50.3177 208.889C49.8046 207.797 48.9729 207.049 47.8228 206.645C46.6998 206.25 45.5989 206.312 44.5203 206.83C43.9352 207.111 42.9928 207.76 41.6929 208.778Z" fill="white"/>
<path d="M82.0722 147.353C80.4372 149.424 78.522 150.589 76.3265 150.847C74.131 151.106 72.0857 150.514 70.1906 149.073L59.8574 140.916L61.057 139.396L71.2551 147.447C72.6621 148.558 74.2652 148.992 76.0643 148.749C77.8658 148.527 79.3575 147.668 80.5393 146.17C81.6411 144.775 82.0966 143.179 81.9058 141.384C81.7126 139.569 80.9125 138.106 79.5055 136.996L69.3074 128.945L70.507 127.425L80.8401 135.583C82.682 137.091 83.7321 138.944 83.9905 141.139C84.2489 143.334 83.6094 145.406 82.0722 147.353Z" fill="white"/>
<path d="M126 69.135L127.711 68.2285L127.943 68.6657C128.463 67.0752 129.465 65.8872 130.947 65.1015C132.481 64.2891 134.071 64.136 135.719 64.6423C136.165 64.7793 136.586 64.9618 136.983 65.1898C137.024 64.7462 137.116 64.2917 137.259 63.8265C137.765 62.1786 138.785 60.9484 140.318 60.136C141.851 59.3235 143.442 59.1704 145.09 59.6767C146.667 60.1719 147.867 61.1347 148.689 62.565L156.324 76.9726L154.614 77.8791L146.979 63.4715L146.998 63.4615C146.423 62.4999 145.603 61.8554 144.537 61.5277C143.38 61.183 142.276 61.2893 141.224 61.8466C140.173 62.4039 139.465 63.2579 139.101 64.4084C138.749 65.5522 138.869 66.6816 139.46 67.7967L146.954 81.9382L145.243 82.8447L137.608 68.4371L137.627 68.427C137.053 67.4655 136.232 66.8209 135.166 66.4933C134.01 66.1486 132.906 66.2549 131.854 66.8122C130.802 67.3695 130.101 68.2201 129.749 69.3639C129.433 70.3593 129.478 71.3494 129.887 72.3341L137.602 86.8937L135.891 87.8002L126 69.135Z" fill="white"/>
<path d="M236.007 42.4174C237.924 43.97 240.135 44.6719 242.64 44.5231C245.331 44.3633 247.573 43.2749 249.363 41.2578C249.592 41 249.807 40.7359 250.006 40.4654L252.089 41.0744C251.748 41.6118 251.355 42.1308 250.91 42.6313C248.742 45.073 246.026 46.3907 242.763 46.5846C239.513 46.7776 236.667 45.7901 234.226 43.6222C231.784 41.4543 230.466 38.7384 230.272 35.4744C230.079 32.2248 231.067 29.3791 233.235 26.9375C235.403 24.4958 238.111 23.1784 241.361 22.9854C244.152 22.8196 246.643 23.5121 248.833 25.0629C249.193 25.3288 249.555 25.6234 249.919 25.9465C250.056 26.0677 250.185 26.1893 250.307 26.3114L248.934 27.8583L236.007 42.4174ZM247.439 26.6326C245.687 25.4436 243.702 24.9151 241.483 25.0469C238.806 25.2059 236.572 26.2939 234.782 28.3109C232.99 30.3136 232.174 32.6607 232.334 35.352C232.465 37.5709 233.225 39.4796 234.613 41.0779L247.439 26.6326Z" fill="white"/>
<path d="M325.618 27.9754L327.492 28.4623L326.523 32.189C327.056 31.7348 327.646 31.3177 328.293 30.9376C330.374 29.7151 332.293 29.2876 334.05 29.6552L333.519 31.6955C332.325 31.4445 330.932 31.7864 329.341 32.7212C327.106 34.0223 325.633 35.8991 324.922 38.3516L322.179 48.9072L320.305 48.4203L325.618 27.9754Z" fill="white"/>
<path d="M435.582 80.3393L421.783 96.3332L420.317 95.0685L434.116 79.0746L435.582 80.3393ZM439.739 74.0391C440.141 74.3857 440.361 74.8219 440.4 75.3478C440.449 75.8831 440.301 76.3516 439.954 76.7533C439.598 77.1659 439.152 77.3869 438.615 77.4163C438.089 77.455 437.625 77.3011 437.224 76.9545C436.822 76.6078 436.596 76.1669 436.547 75.6317C436.508 75.1058 436.667 74.6365 437.023 74.2239C437.369 73.8222 437.805 73.6019 438.331 73.5632C438.868 73.5338 439.337 73.6925 439.739 74.0391Z" fill="white"/>
<path d="M468.63 118.436L454.971 127.537L453.897 125.926L471.477 114.213L472.55 115.824L471.422 116.575C473.856 117.073 475.721 118.295 477.018 120.24C478.401 122.316 478.876 124.439 478.442 126.606C478.008 128.774 476.812 130.535 474.855 131.891L463.094 139.728L462.02 138.116L473.638 130.375C475.13 129.381 476.039 127.992 476.366 126.206C476.712 124.424 476.392 122.793 475.406 121.313C474.42 119.834 473.05 118.902 471.297 118.52C470.322 118.325 469.433 118.297 468.63 118.436Z" fill="white"/>
<path d="M506.547 200.652C506.979 198.829 507.419 197.532 507.865 196.759C508.565 195.547 509.587 194.762 510.931 194.402C512.289 194.039 513.573 194.207 514.785 194.907C516.011 195.604 516.803 196.624 517.163 197.967C517.526 199.325 517.383 200.566 516.734 201.69C516.091 202.782 515.215 203.477 514.107 203.773L514.003 203.801L512.925 202.352C513.941 201.932 514.642 201.388 515.027 200.721C515.416 200.068 515.498 199.318 515.272 198.473C515.049 197.642 514.561 197.008 513.805 196.572C513.064 196.132 512.271 196.025 511.426 196.251C510.595 196.474 509.961 196.963 509.525 197.718C509.271 198.157 508.941 199.032 508.535 200.343C508.04 202.376 507.518 203.866 506.97 204.814C506.094 206.311 504.832 207.28 503.183 207.721C501.493 208.173 499.895 207.97 498.388 207.111C496.896 206.249 495.925 204.979 495.476 203.303C495.028 201.627 495.235 200.042 496.097 198.55C496.973 197.053 498.118 196.116 499.531 195.738L500.504 197.459C499.285 197.786 498.376 198.467 497.777 199.503C497.182 200.553 497.039 201.653 497.347 202.803C497.654 203.952 498.326 204.827 499.362 205.425C500.402 206.038 501.511 206.186 502.688 205.871C503.838 205.564 504.712 204.892 505.311 203.856C505.636 203.294 506.048 202.226 506.547 200.652Z" fill="white"/>
<path d="M528.268 262.468L507.153 263.068L507.098 261.133L528.213 260.532L528.268 262.468ZM535.724 261.287C535.739 261.818 535.565 262.274 535.203 262.658C534.841 263.055 534.395 263.262 533.865 263.277C533.32 263.292 532.856 263.112 532.472 262.735C532.089 262.373 531.89 261.927 531.875 261.397C531.86 260.866 532.033 260.402 532.395 260.005C532.757 259.621 533.21 259.422 533.755 259.406C534.285 259.391 534.742 259.565 535.125 259.927C535.509 260.303 535.709 260.757 535.724 261.287Z" fill="white"/>
<path d="M514.494 332.779C516.375 332.942 518.187 332.546 519.931 331.593C522.297 330.299 523.86 328.359 524.618 325.771C525.377 323.184 525.109 320.707 523.815 318.34C522.521 315.974 520.581 314.411 517.994 313.653C515.407 312.894 512.93 313.162 510.563 314.456C508.196 315.75 506.633 317.69 505.875 320.277C505.117 322.865 505.384 325.342 506.678 327.708C507.622 329.434 508.92 330.742 510.572 331.629L514.494 332.779ZM505.837 330.196C505.497 329.723 505.179 329.227 504.884 328.707C503.317 325.842 502.994 322.84 503.914 319.702C504.83 316.579 506.72 314.234 509.585 312.667C512.45 311.101 515.445 310.776 518.569 311.692C521.706 312.611 524.051 314.502 525.604 317.363C527.17 320.228 527.495 323.222 526.579 326.346C525.66 329.484 523.774 331.838 520.923 333.408C520.357 333.706 519.781 333.963 519.195 334.179L522.064 335.02L521.52 336.878L505.769 332.261C502.728 331.37 500.444 329.527 498.916 326.733C497.35 323.868 497.025 320.874 497.941 317.75C498.86 314.612 500.753 312.26 503.618 310.694C504.205 310.373 504.799 310.106 505.399 309.894L505.526 312.06C505.218 312.194 504.913 312.344 504.61 312.509C502.243 313.803 500.681 315.744 499.922 318.331C499.168 320.904 499.438 323.374 500.732 325.741C501.909 327.894 503.61 329.379 505.837 330.196Z" fill="white"/>
<path d="M497.372 426.253L496.137 427.744L485.055 418.562C485.227 420.828 484.581 422.844 483.117 424.611C481.525 426.532 479.628 427.596 477.427 427.802C475.226 428.009 473.196 427.369 471.335 425.883L460.453 416.866L461.688 415.376L472.438 424.283C473.818 425.427 475.411 425.899 477.215 425.699C479.021 425.519 480.492 424.745 481.626 423.376C482.761 422.006 483.259 420.427 483.122 418.637C483.046 417.829 482.863 417.118 482.571 416.504L469.634 405.785L470.869 404.294L497.372 426.253Z" fill="white"/>
<path d="M423.254 482.402L428.135 489.954L426.509 491.005L421.628 483.453L418.015 485.788L416.964 484.162L420.577 481.827L410.162 465.712L411.788 464.661L422.203 480.776L425.816 478.441L426.867 480.067L423.254 482.402Z" fill="white"/>
<path fill-rule="evenodd" clip-rule="evenodd" d="M251.783 206.813L316.03 251.854L270.139 284.026V310.594H251.783V296.895V221.261V206.813Z" fill="url(#paint0_linear_152_303)"/>
<path fill-rule="evenodd" clip-rule="evenodd" d="M293.699 517.644L293.696 517.644L293.688 517.644L293.674 517.644L293.655 517.645L293.63 517.646L293.6 517.647L293.564 517.65L293.523 517.653L293.477 517.657L293.425 517.662L293.368 517.668L293.306 517.675L293.238 517.684L293.165 517.693L293.087 517.705L293.004 517.718L292.916 517.732L292.823 517.749L292.725 517.767L292.623 517.787L292.515 517.81L292.403 517.834L292.286 517.861L292.165 517.89L292.039 517.922L291.909 517.955L291.775 517.992L291.637 518.031L291.494 518.073L291.347 518.117L291.197 518.165L291.043 518.215L290.885 518.268L290.723 518.324L290.558 518.384L290.39 518.446L290.219 518.512L290.044 518.58L289.866 518.652L289.686 518.728L289.503 518.806L289.317 518.888L289.128 518.973L288.937 519.062L288.744 519.154L288.549 519.25L288.352 519.349L288.152 519.451L287.952 519.557L287.749 519.666L287.545 519.779L287.339 519.895L287.133 520.015L286.925 520.138L286.716 520.265L286.507 520.395L286.296 520.528L286.085 520.665L285.874 520.805L285.662 520.948L285.451 521.095L285.239 521.244L285.027 521.397L284.815 521.553L284.604 521.712L284.393 521.874L284.182 522.039L283.972 522.207L283.763 522.378L283.555 522.551L283.348 522.727L283.143 522.906L282.938 523.087L282.735 523.271L282.533 523.457L282.333 523.645L282.134 523.836L281.938 524.029L281.743 524.223L281.55 524.42L281.36 524.618L281.171 524.818L280.985 525.02L280.801 525.223L280.619 525.427L280.441 525.633L280.264 525.84L280.091 526.048L279.92 526.257L279.751 526.466L279.586 526.677L279.424 526.888L279.265 527.099L279.108 527.311L278.955 527.523L278.805 527.735L278.659 527.947L278.515 528.158L278.375 528.37L278.238 528.581L278.104 528.791L277.974 529.001L277.847 529.209L277.724 529.417L277.604 529.624L277.487 529.83L277.374 530.034L277.265 530.236L277.158 530.438L277.056 530.637L276.956 530.834L276.861 531.03L276.768 531.223L276.679 531.414L276.594 531.603L276.512 531.789L276.433 531.972L276.357 532.153L276.285 532.331L276.216 532.506L276.15 532.678L276.087 532.846L276.028 533.011L275.971 533.173L275.918 533.331L275.868 533.486L275.82 533.637L275.775 533.783L275.733 533.926L275.694 534.065L275.657 534.2L275.623 534.33L275.591 534.456L275.562 534.578L275.535 534.695L275.511 534.808L275.488 534.915L275.468 535.019L275.449 535.117L275.433 535.21L275.418 535.299L275.405 535.382L275.393 535.46L275.383 535.533L275.375 535.601L275.367 535.664L275.361 535.722L275.356 535.774L275.352 535.821L275.349 535.862L275.347 535.898L275.345 535.929L275.344 535.954L275.343 535.974L275.343 535.988L275.343 535.997L275.343 536L275.342 535.997L275.342 535.99L275.342 535.976L275.341 535.958L275.34 535.933L275.339 535.903L275.336 535.868L275.333 535.828L275.33 535.782L275.325 535.73L275.319 535.674L275.312 535.612L275.303 535.545L275.293 535.472L275.282 535.395L275.269 535.312L275.255 535.225L275.239 535.132L275.22 535.034L275.2 534.932L275.178 534.825L275.154 534.713L275.127 534.597L275.098 534.476L275.067 534.351L275.033 534.221L274.997 534.087L274.958 533.949L274.917 533.807L274.872 533.66L274.825 533.51L274.775 533.356L274.722 533.199L274.666 533.037L274.607 532.873L274.545 532.705L274.48 532.533L274.411 532.359L274.34 532.182L274.265 532.001L274.186 531.818L274.105 531.633L274.02 531.444L273.931 531.254L273.839 531.061L273.744 530.866L273.645 530.668L273.543 530.469L273.438 530.269L273.329 530.066L273.216 529.862L273.1 529.657L272.981 529.45L272.858 529.243L272.731 529.034L272.602 528.824L272.469 528.614L272.332 528.403L272.193 528.192L272.05 527.98L271.903 527.768L271.754 527.556L271.601 527.345L271.445 527.133L271.287 526.921L271.125 526.71L270.96 526.5L270.792 526.29L270.622 526.081L270.449 525.873L270.273 525.666L270.094 525.46L269.913 525.255L269.73 525.052L269.544 524.85L269.356 524.65L269.165 524.451L268.973 524.254L268.778 524.06L268.582 523.867L268.384 523.676L268.184 523.487L267.982 523.301L267.779 523.116L267.575 522.935L267.369 522.756L267.163 522.579L266.955 522.405L266.746 522.234L266.536 522.066L266.326 521.9L266.115 521.738L265.904 521.578L265.692 521.422L265.48 521.268L265.268 521.118L265.056 520.971L264.845 520.827L264.633 520.687L264.422 520.55L264.212 520.416L264.002 520.285L263.793 520.158L263.585 520.034L263.378 519.914L263.173 519.797L262.968 519.684L262.766 519.574L262.564 519.468L262.365 519.365L262.167 519.265L261.972 519.169L261.778 519.076L261.587 518.987L261.398 518.901L261.212 518.819L261.028 518.74L260.847 518.664L260.669 518.592L260.494 518.522L260.322 518.456L260.153 518.393L259.988 518.334L259.826 518.277L259.667 518.223L259.512 518.172L259.361 518.125L259.214 518.08L259.071 518.037L258.932 517.998L258.797 517.961L258.666 517.927L258.54 517.895L258.418 517.866L258.3 517.838L258.187 517.814L258.079 517.791L257.976 517.77L257.877 517.752L257.783 517.735L257.694 517.72L257.611 517.707L257.532 517.695L257.458 517.685L257.39 517.676L257.327 517.669L257.269 517.663L257.216 517.658L257.169 517.653L257.127 517.65L257.09 517.648L257.059 517.646L257.034 517.645L257.014 517.644L256.999 517.644L256.99 517.644L256.986 517.644L256.988 517.644L256.996 517.643L257.008 517.643L257.027 517.642L257.051 517.641L257.08 517.64L257.115 517.638L257.155 517.635L257.2 517.631L257.251 517.626L257.308 517.62L257.369 517.613L257.436 517.605L257.508 517.595L257.585 517.584L257.667 517.571L257.754 517.557L257.847 517.541L257.944 517.523L258.046 517.503L258.152 517.481L258.264 517.457L258.38 517.43L258.5 517.402L258.625 517.371L258.755 517.337L258.888 517.301L259.026 517.263L259.168 517.221L259.314 517.177L259.464 517.13L259.617 517.08L259.775 517.028L259.936 516.972L260.1 516.913L260.268 516.851L260.439 516.786L260.613 516.718L260.79 516.646L260.97 516.572L261.153 516.494L261.339 516.412L261.527 516.328L261.717 516.239L261.91 516.148L262.105 516.053L262.302 515.954L262.501 515.853L262.701 515.747L262.904 515.638L263.108 515.526L263.313 515.41L263.519 515.291L263.727 515.169L263.935 515.043L264.145 514.913L264.355 514.78L264.566 514.644L264.777 514.505L264.989 514.362L265.201 514.216L265.413 514.067L265.625 513.914L265.836 513.759L266.048 513.6L266.259 513.439L266.469 513.274L266.679 513.107L266.888 512.937L267.096 512.764L267.304 512.588L267.51 512.41L267.714 512.229L267.918 512.045L268.12 511.86L268.32 511.672L268.519 511.482L268.716 511.289L268.911 511.095L269.104 510.899L269.295 510.701L269.484 510.501L269.671 510.3L269.855 510.097L270.037 509.892L270.216 509.687L270.393 509.48L270.567 509.272L270.738 509.064L270.907 508.854L271.073 508.644L271.235 508.433L271.395 508.222L271.552 508.01L271.706 507.798L271.856 507.586L272.003 507.374L272.147 507.162L272.288 506.951L272.426 506.74L272.56 506.53L272.691 506.32L272.818 506.111L272.942 505.903L273.062 505.696L273.179 505.49L273.293 505.286L273.403 505.083L273.51 504.881L273.613 504.682L273.713 504.484L273.809 504.288L273.902 504.095L273.992 503.903L274.078 503.714L274.161 503.528L274.24 503.344L274.316 503.163L274.389 502.984L274.458 502.809L274.525 502.637L274.588 502.468L274.648 502.302L274.705 502.139L274.759 501.981L274.81 501.826L274.858 501.674L274.903 501.527L274.945 501.383L274.985 501.244L275.022 501.108L275.057 500.977L275.089 500.85L275.118 500.728L275.146 500.61L275.171 500.497L275.193 500.389L275.214 500.285L275.233 500.186L275.25 500.091L275.265 500.002L275.278 499.918L275.29 499.839L275.3 499.765L275.309 499.696L275.317 499.633L275.323 499.574L275.328 499.521L275.332 499.473L275.336 499.431L275.338 499.394L275.34 499.363L275.341 499.337L275.342 499.316L275.342 499.301L275.342 499.292L275.343 499.287L275.343 499.289L275.343 499.296L275.343 499.308L275.343 499.326L275.344 499.35L275.346 499.378L275.348 499.413L275.351 499.453L275.355 499.498L275.36 499.548L275.365 499.604L275.372 499.665L275.38 499.731L275.39 499.803L275.401 499.88L275.413 499.961L275.428 500.048L275.444 500.14L275.462 500.237L275.481 500.338L275.503 500.445L275.527 500.556L275.553 500.671L275.582 500.791L275.613 500.916L275.646 501.045L275.682 501.178L275.72 501.316L275.761 501.458L275.805 501.603L275.852 501.753L275.902 501.906L275.954 502.063L276.01 502.224L276.068 502.388L276.13 502.555L276.195 502.726L276.263 502.9L276.334 503.077L276.408 503.257L276.486 503.439L276.567 503.625L276.652 503.813L276.74 504.003L276.831 504.196L276.926 504.39L277.024 504.587L277.125 504.786L277.23 504.986L277.339 505.189L277.451 505.392L277.566 505.597L277.685 505.804L277.807 506.011L277.933 506.22L278.062 506.429L278.195 506.639L278.331 506.85L278.47 507.061L278.612 507.273L278.758 507.485L278.907 507.697L279.059 507.909L279.215 508.121L279.373 508.332L279.534 508.543L279.699 508.754L279.866 508.964L280.036 509.173L280.209 509.381L280.384 509.588L280.562 509.794L280.743 509.999L280.926 510.203L281.111 510.405L281.299 510.605L281.489 510.804L281.681 511.001L281.876 511.197L282.072 511.39L282.27 511.581L282.469 511.77L282.67 511.957L282.873 512.141L283.077 512.323L283.283 512.503L283.489 512.68L283.697 512.854L283.906 513.026L284.115 513.195L284.326 513.361L284.536 513.524L284.748 513.684L284.959 513.841L285.171 513.994L285.383 514.145L285.595 514.293L285.807 514.437L286.018 514.578L286.229 514.716L286.44 514.85L286.65 514.981L286.859 515.109L287.067 515.233L287.274 515.354L287.48 515.471L287.684 515.585L287.887 515.696L288.089 515.803L288.288 515.906L288.486 516.006L288.682 516.103L288.876 516.196L289.068 516.286L289.257 516.372L289.444 516.455L289.628 516.535L289.809 516.611L289.988 516.684L290.163 516.754L290.336 516.821L290.505 516.884L290.671 516.944L290.834 517.001L290.993 517.056L291.148 517.107L291.3 517.155L291.448 517.2L291.592 517.243L291.731 517.283L291.867 517.32L291.999 517.355L292.126 517.387L292.248 517.417L292.367 517.444L292.48 517.47L292.589 517.493L292.693 517.514L292.793 517.533L292.887 517.55L292.977 517.565L293.061 517.578L293.141 517.59L293.215 517.601L293.285 517.609L293.349 517.617L293.407 517.623L293.461 517.629L293.509 517.633L293.552 517.636L293.589 517.639L293.621 517.641L293.647 517.642L293.668 517.643L293.684 517.643L293.694 517.643L293.698 517.644L293.699 517.644Z" stroke="url(#paint1_linear_152_303)" stroke-width="1.22374"/>
<defs>
<linearGradient id="paint0_linear_152_303" x1="251.783" y1="227.685" x2="282.071" y2="313.347" gradientUnits="userSpaceOnUse">
<stop stop-color="#34B7F1"/>
<stop offset="1" stop-color="#2B70F4"/>
</linearGradient>
<linearGradient id="paint1_linear_152_303" x1="256.986" y1="506.671" x2="264.107" y2="539.203" gradientUnits="userSpaceOnUse">
<stop stop-color="#34B7F1"/>
<stop offset="1" stop-color="#2B70F4"/>
</linearGradient>
</defs>
</svg>
