<svg width="255" height="47" viewBox="0 0 255 47" fill="none" xmlns="http://www.w3.org/2000/svg">
<path fill-rule="evenodd" clip-rule="evenodd" d="M0.000488281 0L29.0962 20.3981L8.31355 34.9681V47H0.000490189L0.000488281 40.7962V0Z" fill="white"/>
<path d="M61.006 28.3175V39H59.2737V8.20363H67.3577C69.706 8.52443 71.7013 9.50606 73.3438 11.1485C75.3071 13.1118 76.2887 15.4793 76.2887 18.2509C76.2887 21.0355 75.3071 23.4093 73.3438 25.3726C71.3805 27.3359 69.013 28.3175 66.2414 28.3175H61.006ZM61.006 9.95517V26.566H66.2414C68.5254 26.566 70.4759 25.7576 72.0927 24.1408C73.7223 22.5111 74.5371 20.5478 74.5371 18.2509C74.5371 15.954 73.7223 13.9972 72.0927 12.3804C70.4759 10.7636 68.5254 9.95517 66.2414 9.95517H61.006ZM100.462 39H98.73V35.1505C98.3964 35.5996 98.0307 36.0294 97.6329 36.4401C95.567 38.506 93.0712 39.5389 90.1455 39.5389C87.2327 39.5389 84.7433 38.506 82.6774 36.4401C80.6115 34.3741 79.5785 31.8848 79.5785 28.9719C79.5785 26.0463 80.6115 23.5505 82.6774 21.4846C84.7433 19.4186 87.2327 18.3857 90.1455 18.3857C93.0712 18.3857 95.567 19.4186 97.6329 21.4846C98.0307 21.8952 98.3964 22.325 98.73 22.7742V20.0987H100.462V39ZM98.73 30.685V27.2589C98.4092 25.5651 97.6072 24.0766 96.324 22.7934C94.6174 21.0868 92.5579 20.2335 90.1455 20.2335C87.7331 20.2335 85.6736 21.0868 83.967 22.7934C82.2604 24.5 81.407 26.5595 81.407 28.9719C81.407 31.3843 82.2604 33.4438 83.967 35.1505C85.6736 36.8443 87.7331 37.6912 90.1455 37.6912C92.5579 37.6912 94.6174 36.8378 96.324 35.1312C97.6072 33.848 98.4092 32.3659 98.73 30.685ZM126.464 27.1626C126.131 25.5073 125.335 24.0509 124.078 22.7934C122.371 21.0868 120.312 20.2335 117.899 20.2335C115.487 20.2335 113.427 21.0868 111.721 22.7934C110.014 24.5 109.161 26.5595 109.161 28.9719C109.161 31.3843 110.014 33.4438 111.721 35.1505C113.427 36.8571 115.487 37.7104 117.899 37.7104C120.312 37.7104 122.371 36.8571 124.078 35.1505C125.322 33.9058 126.118 32.4622 126.464 30.8197V27.1626ZM126.426 35.2467C126.105 35.6573 125.759 36.0551 125.387 36.4401C123.321 38.506 120.825 39.5389 117.899 39.5389C114.986 39.5389 112.497 38.506 110.431 36.4401C108.365 34.3741 107.332 31.8848 107.332 28.9719C107.332 26.0463 108.365 23.5569 110.431 21.5038C112.497 19.4379 114.986 18.4049 117.899 18.4049C120.825 18.4049 123.321 19.4315 125.387 21.4846C125.784 21.8952 126.15 22.325 126.484 22.7742V20.0987H128.216V34.7847C128.216 37.6206 127.209 40.0458 125.194 42.0604C123.128 44.1263 120.639 45.1593 117.726 45.1593C114.8 45.1593 112.305 44.1263 110.239 42.0604C109.815 41.6369 109.437 41.1942 109.103 40.7323L110.932 40.0779C111.124 40.3088 111.329 40.5334 111.547 40.7515C113.254 42.4582 115.314 43.3115 117.726 43.3115C120.126 43.3115 122.179 42.4582 123.885 40.7515C125.438 39.1989 126.285 37.3639 126.426 35.2467ZM139.243 35.4584C140.873 36.9469 142.811 37.6912 145.056 37.6912C147.469 37.6912 149.528 36.8378 151.235 35.1312C151.453 34.9131 151.658 34.6885 151.851 34.4575L153.679 35.112C153.346 35.5739 152.967 36.0166 152.544 36.4401C150.478 38.506 147.982 39.5389 145.056 39.5389C142.143 39.5389 139.654 38.506 137.588 36.4401C135.522 34.3741 134.489 31.8783 134.489 28.9527C134.489 26.0399 135.522 23.5505 137.588 21.4846C139.654 19.4186 142.143 18.3857 145.056 18.3857C147.558 18.3857 149.746 19.1363 151.62 20.6377C151.928 20.8943 152.236 21.1766 152.544 21.4846C152.659 21.6001 152.768 21.7155 152.871 21.831L151.562 23.1399L139.243 35.4584ZM150.292 21.9658C148.79 20.8109 147.045 20.2335 145.056 20.2335C142.657 20.2335 140.604 21.0868 138.897 22.7934C137.19 24.4872 136.337 26.5403 136.337 28.9527C136.337 30.9416 136.914 32.6867 138.069 34.1881L150.292 21.9658ZM174.703 39V10.3314H180.765V34.0026H193.055V39H174.703ZM204.319 39H197.824L207.72 10.3314H215.532L225.414 39H218.919L211.738 16.8826H211.514L204.319 39ZM203.913 27.7313H219.255V32.4628H203.913V27.7313ZM230.442 39V10.3314H241.92C244.029 10.3314 245.789 10.644 247.198 11.2693C248.607 11.8945 249.666 12.7624 250.375 13.873C251.085 14.9742 251.439 16.2433 251.439 17.6805C251.439 18.8004 251.215 19.7849 250.767 20.6342C250.319 21.4741 249.703 22.1647 248.92 22.7059C248.145 23.2379 247.258 23.6158 246.26 23.8398V24.1198C247.352 24.1664 248.374 24.4744 249.326 25.0436C250.287 25.6129 251.066 26.4108 251.663 27.4374C252.26 28.4546 252.559 29.6678 252.559 31.0769C252.559 32.5981 252.181 33.9559 251.425 35.1505C250.679 36.3356 249.573 37.2735 248.108 37.9641C246.642 38.6547 244.837 39 242.69 39H230.442ZM236.503 34.0446H241.444C243.134 34.0446 244.365 33.7226 245.14 33.0787C245.915 32.4254 246.302 31.5575 246.302 30.475C246.302 29.6818 246.111 28.9818 245.728 28.3753C245.345 27.7687 244.799 27.2927 244.09 26.9474C243.39 26.6021 242.555 26.4295 241.584 26.4295H236.503V34.0446ZM236.503 22.328H240.996C241.827 22.328 242.564 22.1833 243.208 21.894C243.861 21.5954 244.375 21.1754 244.748 20.6342C245.131 20.0929 245.322 19.4443 245.322 18.6884C245.322 17.6525 244.953 16.8173 244.216 16.1827C243.488 15.5481 242.452 15.2308 241.108 15.2308H236.503V22.328Z" fill="white"/>
</svg>