<svg width="169" height="31" viewBox="0 0 169 31" fill="none" xmlns="http://www.w3.org/2000/svg">
<path fill-rule="evenodd" clip-rule="evenodd" d="M1.14441e-05 0L19.1908 13.4541L5.48308 23.0641V31H0V4.31566H1.14441e-05V0Z" fill="url(#paint0_linear_124_787)"/>
<path d="M40.2375 17.9541V25H39.095V4.6875H44.427C45.9758 4.89909 47.2919 5.54655 48.3752 6.62988C49.6702 7.9248 50.3176 9.48633 50.3176 11.3145C50.3176 13.151 49.6702 14.7168 48.3752 16.0117C47.0803 17.3066 45.5188 17.9541 43.6907 17.9541H40.2375ZM40.2375 5.84277V16.7988H43.6907C45.1972 16.7988 46.4836 16.2656 47.55 15.1992C48.6249 14.1243 49.1624 12.8294 49.1624 11.3145C49.1624 9.79948 48.6249 8.50879 47.55 7.44238C46.4836 6.37598 45.1972 5.84277 43.6907 5.84277H40.2375ZM66.2619 25H65.1193V22.4609C64.8993 22.7572 64.6581 23.0407 64.3957 23.3115C63.0331 24.6742 61.3869 25.3555 59.4572 25.3555C57.536 25.3555 55.8941 24.6742 54.5315 23.3115C53.1688 21.9489 52.4875 20.307 52.4875 18.3857C52.4875 16.4561 53.1688 14.8099 54.5315 13.4473C55.8941 12.0846 57.536 11.4033 59.4572 11.4033C61.3869 11.4033 63.0331 12.0846 64.3957 13.4473C64.6581 13.7181 64.8993 14.0016 65.1193 14.2979V12.5332H66.2619V25ZM65.1193 19.5156V17.2559C64.9078 16.1387 64.3788 15.1569 63.5324 14.3105C62.4068 13.1849 61.0484 12.6221 59.4572 12.6221C57.8661 12.6221 56.5077 13.1849 55.382 14.3105C54.2564 15.4362 53.6936 16.7946 53.6936 18.3857C53.6936 19.9769 54.2564 21.3353 55.382 22.4609C56.5077 23.5781 57.8661 24.1367 59.4572 24.1367C61.0484 24.1367 62.4068 23.5739 63.5324 22.4482C64.3788 21.6019 64.9078 20.6243 65.1193 19.5156ZM83.4123 17.1924C83.1922 16.1006 82.6675 15.14 81.8381 14.3105C80.7124 13.1849 79.354 12.6221 77.7629 12.6221C76.1717 12.6221 74.8133 13.1849 73.6877 14.3105C72.562 15.4362 71.9992 16.7946 71.9992 18.3857C71.9992 19.9769 72.562 21.3353 73.6877 22.4609C74.8133 23.5866 76.1717 24.1494 77.7629 24.1494C79.354 24.1494 80.7124 23.5866 81.8381 22.4609C82.659 21.64 83.1838 20.6878 83.4123 19.6045V17.1924ZM83.3869 22.5244C83.1753 22.7952 82.9468 23.0576 82.7013 23.3115C81.3387 24.6742 79.6926 25.3555 77.7629 25.3555C75.8416 25.3555 74.1997 24.6742 72.8371 23.3115C71.4745 21.9489 70.7931 20.307 70.7931 18.3857C70.7931 16.4561 71.4745 14.8141 72.8371 13.46C74.1997 12.0973 75.8416 11.416 77.7629 11.416C79.6926 11.416 81.3387 12.0931 82.7013 13.4473C82.9637 13.7181 83.2049 14.0016 83.425 14.2979V12.5332H84.5676V22.2197C84.5676 24.0902 83.9032 25.6898 82.5744 27.0186C81.2118 28.3812 79.5698 29.0625 77.6486 29.0625C75.7189 29.0625 74.0728 28.3812 72.7101 27.0186C72.4308 26.7393 72.1812 26.4473 71.9611 26.1426L73.1672 25.7109C73.2941 25.8633 73.4295 26.0114 73.5734 26.1553C74.6991 27.2809 76.0575 27.8438 77.6486 27.8438C79.2313 27.8438 80.5855 27.2809 81.7111 26.1553C82.7352 25.1312 83.2938 23.9209 83.3869 22.5244ZM91.8409 22.6641C92.9158 23.6458 94.1938 24.1367 95.6749 24.1367C97.2661 24.1367 98.6245 23.5739 99.7501 22.4482C99.894 22.3044 100.029 22.1562 100.156 22.0039L101.362 22.4355C101.142 22.7402 100.893 23.0322 100.613 23.3115C99.2508 24.6742 97.6046 25.3555 95.6749 25.3555C93.7537 25.3555 92.1118 24.6742 90.7491 23.3115C89.3865 21.9489 88.7052 20.3027 88.7052 18.373C88.7052 16.4518 89.3865 14.8099 90.7491 13.4473C92.1118 12.0846 93.7537 11.4033 95.6749 11.4033C97.3253 11.4033 98.7684 11.8984 100.004 12.8887C100.207 13.0579 100.41 13.2441 100.613 13.4473C100.69 13.5234 100.762 13.5996 100.829 13.6758L99.9659 14.5391L91.8409 22.6641ZM99.1281 13.7646C98.1378 13.0029 96.9868 12.6221 95.6749 12.6221C94.0922 12.6221 92.7381 13.1849 91.6124 14.3105C90.4868 15.4277 89.924 16.7819 89.924 18.373C89.924 19.6849 90.3048 20.8359 91.0665 21.8262L99.1281 13.7646Z" fill="white"/>
<path d="M115.229 25H127.334V21.7038H119.227V6.09091H115.229V25ZM134.763 25L136.166 20.6882H142.99L144.393 25H148.677L142.159 6.09091H137.007L130.479 25H134.763ZM137.182 17.5675L139.509 10.4119H139.657L141.983 17.5675H137.182ZM151.993 25H160.072C164.319 25 166.581 22.7841 166.581 19.7741C166.581 16.9766 164.578 15.2869 162.426 15.1854V15.0007C164.393 14.5575 165.842 13.1634 165.842 10.9382C165.842 8.10369 163.737 6.09091 159.564 6.09091H151.993V25ZM155.991 21.7315V16.7088H159.342C161.263 16.7088 162.454 17.8168 162.454 19.3771C162.454 20.799 161.485 21.7315 159.25 21.7315H155.991ZM155.991 14.0036V9.32244H159.029C160.801 9.32244 161.808 10.2365 161.808 11.603C161.808 13.0987 160.589 14.0036 158.955 14.0036H155.991Z" fill="url(#paint1_linear_124_787)"/>
<defs>
<linearGradient id="paint0_linear_124_787" x1="1.83643e-07" y1="6.23464" x2="9.04709" y2="31.8224" gradientUnits="userSpaceOnUse">
<stop stop-color="#34B7F1"/>
<stop offset="1" stop-color="#2B70F4"/>
</linearGradient>
<linearGradient id="paint1_linear_124_787" x1="37.1907" y1="6.23464" x2="38.6777" y2="34.9441" gradientUnits="userSpaceOnUse">
<stop stop-color="#34B7F1"/>
<stop offset="1" stop-color="#2B70F4"/>
</linearGradient>
</defs>
</svg>
