<svg width="907" height="907" viewBox="0 0 907 907" fill="none" xmlns="http://www.w3.org/2000/svg">
<g opacity="0.2" filter="url(#filter0_d_152_839)">
<path fill-rule="evenodd" clip-rule="evenodd" d="M826 453.499L825.944 453.499L825.777 453.502L825.497 453.509L825.107 453.522L824.605 453.545L823.993 453.579L823.27 453.626L822.437 453.689L821.495 453.769L820.445 453.869L819.287 453.991L818.021 454.138L816.65 454.31L815.173 454.511L813.592 454.742L811.908 455.005L810.122 455.302L808.235 455.636L806.249 456.008L804.165 456.419L801.985 456.873L799.709 457.37L797.34 457.912L794.879 458.502L792.328 459.139L789.689 459.828L786.963 460.567L784.152 461.361L781.259 462.208L778.285 463.112L775.231 464.074L772.102 465.093L768.897 466.173L765.62 467.314L762.273 468.517L758.859 469.783L755.378 471.113L751.834 472.508L748.229 473.969L744.566 475.496L740.846 477.091L737.073 478.753L733.249 480.484L729.376 482.284L725.457 484.153L721.495 486.092L717.491 488.1L713.45 490.179L709.372 492.327L705.262 494.547L701.121 496.836L696.952 499.195L692.758 501.624L688.542 504.123L684.306 506.691L680.052 509.329L675.784 512.034L671.505 514.808L667.215 517.649L662.92 520.556L658.62 523.53L654.319 526.568L650.019 529.67L645.722 532.836L641.432 536.064L637.151 539.352L632.881 542.7L628.625 546.107L624.385 549.571L620.164 553.091L615.963 556.665L611.786 560.292L607.634 563.97L603.51 567.698L599.417 571.474L595.355 575.296L591.328 579.162L587.337 583.071L583.384 587.02L579.472 591.008L575.602 595.033L571.777 599.092L567.998 603.183L564.266 607.304L560.584 611.454L556.953 615.629L553.374 619.828L549.85 624.048L546.381 628.287L542.97 632.542L539.617 636.811L536.324 641.091L533.091 645.38L529.921 649.676L526.813 653.976L523.77 658.277L520.791 662.577L517.878 666.873L515.032 671.163L512.253 675.444L509.542 679.713L506.9 683.967L504.326 688.205L501.821 692.423L499.387 696.619L497.022 700.79L494.727 704.933L492.502 709.046L490.348 713.126L488.264 717.171L486.25 721.177L484.305 725.143L482.431 729.066L480.626 732.942L478.889 736.771L477.221 740.548L475.621 744.272L474.089 747.94L472.623 751.549L471.222 755.098L469.887 758.584L468.616 762.004L467.408 765.357L466.262 768.639L465.178 771.849L464.153 774.985L463.187 778.044L462.279 781.025L461.427 783.925L460.629 786.742L459.885 789.475L459.193 792.122L458.551 794.68L457.958 797.148L457.412 799.524L456.912 801.807L456.455 803.996L456.04 806.087L455.665 808.081L455.328 809.976L455.028 811.77L454.762 813.462L454.529 815.051L454.326 816.536L454.151 817.916L454.003 819.19L453.879 820.357L453.777 821.416L453.695 822.367L453.631 823.208L453.583 823.939L453.548 824.561L453.525 825.071L453.51 825.471L453.503 825.759L453.5 825.935L453.499 826L453.499 825.953L453.497 825.794L453.49 825.524L453.477 825.142L453.455 824.649L453.422 824.046L453.376 823.332L453.315 822.508L453.236 821.575L453.137 820.533L453.017 819.383L452.873 818.126L452.703 816.763L452.504 815.295L452.276 813.722L452.015 812.046L451.72 810.268L451.39 808.39L451.021 806.411L450.613 804.335L450.163 802.162L449.669 799.894L449.131 797.533L448.545 795.079L447.911 792.535L447.227 789.902L446.491 787.183L445.702 784.379L444.859 781.492L443.96 778.524L443.003 775.477L441.988 772.354L440.913 769.155L439.777 765.884L438.579 762.543L437.318 759.133L435.993 755.657L434.603 752.119L433.148 748.518L431.626 744.86L430.037 741.145L428.379 737.376L426.654 733.555L424.86 729.686L422.996 725.771L421.063 721.812L419.06 717.812L416.987 713.773L414.844 709.698L412.631 705.59L410.347 701.452L407.993 697.285L405.57 693.093L403.076 688.878L400.514 684.643L397.882 680.391L395.182 676.125L392.413 671.845L389.578 667.557L386.676 663.262L383.708 658.962L380.674 654.661L377.577 650.361L374.417 646.064L371.194 641.774L367.91 637.491L364.567 633.221L361.164 628.963L357.705 624.722L354.189 620.499L350.62 616.296L346.997 612.117L343.323 607.963L339.599 603.837L335.827 599.741L332.008 595.677L328.146 591.647L324.24 587.653L320.294 583.697L316.309 579.782L312.287 575.909L308.231 572.08L304.142 568.296L300.023 564.561L295.876 560.875L291.702 557.239L287.505 553.657L283.287 550.128L279.05 546.655L274.796 543.239L270.528 539.881L266.249 536.583L261.96 533.346L257.664 530.17L253.365 527.058L249.064 524.009L244.764 521.025L240.467 518.107L236.177 515.256L231.895 512.472L227.625 509.755L223.369 507.107L219.13 504.528L214.91 502.018L210.713 499.577L206.54 497.207L202.394 494.906L198.279 492.676L194.196 490.516L190.148 488.427L186.139 486.407L182.17 484.457L178.244 482.577L174.363 480.766L170.531 479.024L166.75 477.351L163.021 475.746L159.349 474.208L155.735 472.736L152.181 471.331L148.69 469.99L145.265 468.714L141.907 467.501L138.618 466.351L135.402 465.261L132.261 464.232L129.195 463.261L126.208 462.349L123.302 461.492L120.478 460.69L117.738 459.942L115.085 459.246L112.519 458.6L110.044 458.003L107.66 457.453L105.37 456.949L103.174 456.489L101.075 456.071L99.0728 455.693L97.1703 455.353L95.3682 455.05L93.6679 454.781L92.0704 454.545L90.577 454.34L89.1886 454.163L87.9063 454.013L86.7309 453.887L85.6632 453.784L84.704 453.7L83.8539 453.635L83.1136 453.585L82.4836 453.55L81.9642 453.525L81.5559 453.51L81.259 453.502L81.0737 453.499L81 453.499L81.0381 453.498L81.1879 453.496L81.4493 453.49L81.8221 453.477L82.3061 453.456L82.9009 453.424L83.6062 453.38L84.4213 453.32L85.3458 453.242L86.3791 453.145L87.5202 453.027L88.7686 452.884L90.1233 452.716L91.5834 452.52L93.1478 452.294L94.8155 452.036L96.5853 451.744L98.456 451.417L100.426 451.051L102.495 450.646L104.66 450.199L106.921 449.709L109.275 449.174L111.721 448.593L114.258 447.963L116.883 447.283L119.596 446.551L122.393 445.766L125.274 444.927L128.235 444.033L131.276 443.081L134.393 442.07L137.586 441L140.852 439.869L144.187 438.676L147.592 437.42L151.062 436.1L154.596 434.716L158.191 433.265L161.845 431.749L165.556 430.165L169.321 428.513L173.137 426.793L177.002 425.004L180.914 423.146L184.87 421.219L188.867 419.222L192.903 417.154L196.975 415.017L201.08 412.809L205.216 410.531L209.381 408.182L213.571 405.764L217.784 403.276L222.017 400.719L226.268 398.093L230.534 395.398L234.812 392.635L239.1 389.805L243.394 386.908L247.694 383.945L251.995 380.917L256.295 377.825L260.592 374.67L264.883 371.452L269.166 368.173L273.438 364.834L277.697 361.436L281.939 357.981L286.164 354.47L290.368 350.905L294.549 347.286L298.705 343.616L302.833 339.896L306.932 336.128L310.999 332.313L315.032 328.454L319.029 324.552L322.988 320.609L326.906 316.627L330.783 312.608L334.615 308.554L338.402 304.468L342.142 300.351L345.832 296.206L349.471 292.034L353.058 287.839L356.591 283.623L360.069 279.387L363.489 275.134L366.851 270.867L370.154 266.589L373.397 262.3L376.577 258.005L379.695 253.706L382.748 249.405L385.737 245.105L388.661 240.808L391.518 236.517L394.307 232.234L397.029 227.963L399.683 223.706L402.267 219.466L404.783 215.244L407.229 211.045L409.605 206.87L411.911 202.722L414.147 198.604L416.312 194.518L418.408 190.468L420.433 186.455L422.388 182.483L424.274 178.553L426.09 174.669L427.837 170.833L429.516 167.047L431.127 163.315L432.67 159.638L434.147 156.019L435.558 152.46L436.903 148.964L438.184 145.533L439.402 142.17L440.558 138.876L441.652 135.654L442.686 132.506L443.661 129.435L444.579 126.441L445.44 123.528L446.246 120.698L446.998 117.951L447.699 115.291L448.348 112.719L448.949 110.236L449.503 107.845L450.01 105.547L450.474 103.344L450.895 101.236L451.277 99.2269L451.619 97.3164L451.925 95.5063L452.196 93.7978L452.435 92.1921L452.642 90.6904L452.821 89.2936L452.974 88.0028L453.102 86.8188L453.207 85.7425L453.292 84.7746L453.358 83.9158L453.409 83.1668L453.446 82.5279L453.471 81.9997L453.487 81.5826L453.495 81.2768L453.499 81.0826L453.499 81L453.499 81.0292L453.501 81.1701L453.507 81.4226L453.519 81.7866L453.539 82.2617L453.57 82.8477L453.614 83.5442L453.673 84.3506L453.749 85.2665L453.844 86.291L453.961 87.4237L454.101 88.6636L454.267 90.0098L454.461 91.4616L454.684 93.0177L454.94 94.6772L455.229 96.4389L455.554 98.3016L455.916 100.264L456.318 102.325L456.761 104.482L457.248 106.735L457.779 109.082L458.357 111.521L458.983 114.051L459.659 116.669L460.387 119.375L461.167 122.166L462.002 125.039L462.892 127.995L463.839 131.029L464.845 134.141L465.91 137.328L467.037 140.587L468.225 143.918L469.475 147.317L470.79 150.782L472.169 154.311L473.615 157.901L475.126 161.551L476.704 165.257L478.351 169.018L480.065 172.83L481.848 176.691L483.701 180.6L485.623 184.552L487.615 188.546L489.676 192.579L491.808 196.648L494.011 200.75L496.283 204.884L498.626 209.047L501.038 213.235L503.521 217.446L506.072 221.678L508.693 225.927L511.382 230.192L514.14 234.469L516.965 238.757L519.856 243.051L522.814 247.35L525.837 251.651L528.924 255.952L532.075 260.249L535.287 264.541L538.561 268.824L541.896 273.097L545.289 277.357L548.739 281.601L552.246 285.827L555.807 290.033L559.421 294.216L563.087 298.374L566.804 302.505L570.568 306.606L574.379 310.675L578.235 314.711L582.134 318.711L586.073 322.673L590.052 326.594L594.068 330.475L598.119 334.311L602.203 338.101L606.317 341.845L610.461 345.539L614.63 349.182L618.823 352.773L623.038 356.311L627.273 359.793L631.524 363.218L635.79 366.585L640.068 369.893L644.355 373.14L648.65 376.325L652.949 379.448L657.25 382.507L661.55 385.501L665.848 388.429L670.139 391.292L674.422 394.087L678.694 396.814L682.953 399.473L687.195 402.063L691.418 404.584L695.619 407.036L699.796 409.417L703.946 411.729L708.066 413.97L712.155 416.142L716.208 418.242L720.224 420.273L724.2 422.234L728.133 424.125L732.021 425.947L735.861 427.7L739.65 429.384L743.387 431L747.069 432.549L750.692 434.031L754.256 435.447L757.757 436.798L761.193 438.084L764.562 439.307L767.861 440.467L771.089 441.566L774.243 442.605L777.32 443.585L780.32 444.507L783.24 445.372L786.077 446.183L788.83 446.94L791.497 447.644L794.077 448.298L796.566 448.902L798.965 449.459L801.27 449.971L803.481 450.438L805.596 450.863L807.614 451.247L809.532 451.592L811.35 451.901L813.067 452.175L814.681 452.416L816.191 452.626L817.596 452.807L818.895 452.962L820.088 453.091L821.173 453.198L822.149 453.285L823.017 453.353L823.775 453.405L824.422 453.443L824.959 453.469L825.385 453.485L825.7 453.494L825.903 453.498L825.994 453.498L826 453.499Z" stroke="url(#paint0_linear_152_839)" stroke-width="2" shape-rendering="crispEdges"/>
</g>
<defs>
<filter id="filter0_d_152_839" x="0.992188" y="0.991119" width="905.023" height="905.016" filterUnits="userSpaceOnUse" color-interpolation-filters="sRGB">
<feFlood flood-opacity="0" result="BackgroundImageFix"/>
<feColorMatrix in="SourceAlpha" type="matrix" values="0 0 0 0 0 0 0 0 0 0 0 0 0 0 0 0 0 0 127 0" result="hardAlpha"/>
<feOffset/>
<feGaussianBlur stdDeviation="40"/>
<feComposite in2="hardAlpha" operator="out"/>
<feColorMatrix type="matrix" values="0 0 0 0 0.203922 0 0 0 0 0.717647 0 0 0 0 0.945098 0 0 0 0.9 0"/>
<feBlend mode="normal" in2="BackgroundImageFix" result="effect1_dropShadow_152_839"/>
<feBlend mode="normal" in="SourceGraphic" in2="effect1_dropShadow_152_839" result="shape"/>
</filter>
<linearGradient id="paint0_linear_152_839" x1="81" y1="230.832" x2="225.5" y2="891.009" gradientUnits="userSpaceOnUse">
<stop stop-color="#34B7F1"/>
<stop offset="1" stop-color="#2B70F4"/>
</linearGradient>
</defs>
</svg>
