<svg width="32" height="32" viewBox="0 0 32 32" fill="none" xmlns="http://www.w3.org/2000/svg">
<path d="M5.33333 9.33335C4.59695 9.33335 4 8.7364 4 8.00002C4 7.26364 4.59695 6.66669 5.33333 6.66669H26.6667C27.403 6.66669 28 7.26364 28 8.00002C28 8.7364 27.403 9.33335 26.6667 9.33335H5.33333Z" fill="white"/>
<path d="M5.33333 17.3334C4.59695 17.3334 4 16.7364 4 16C4 15.2636 4.59695 14.6667 5.33333 14.6667H26.6667C27.403 14.6667 28 15.2636 28 16C28 16.7364 27.403 17.3334 26.6667 17.3334H5.33333Z" fill="white"/>
<path d="M4 24C4 24.7364 4.59695 25.3334 5.33333 25.3334H26.6667C27.403 25.3334 28 24.7364 28 24C28 23.2636 27.403 22.6667 26.6667 22.6667H5.33333C4.59695 22.6667 4 23.2636 4 24Z" fill="white"/>
</svg>
